<svg width="27" height="17" viewBox="0 0 27 17" fill="none" xmlns="http://www.w3.org/2000/svg">
<path d="M17.0058 8.60742L14.7594 10.6246C13.8484 11.4427 12.2456 11.4603 11.3149 10.6246L9.06842 8.60742L1 15.8514C1.30033 15.9757 1.63147 16.0499 1.98351 16.0499H24.0908C24.4428 16.0499 24.7739 15.9758 25.0741 15.8515L17.0058 8.60742Z" fill="white"/>
<path d="M24.0907 0H1.98341C1.63137 0 1.30023 0.0741674 1 0.198452L9.62168 7.93975C9.62225 7.94027 9.62294 7.94036 9.62351 7.94088C9.62409 7.94139 9.62419 7.9421 9.62419 7.9421L12.4276 10.4592C12.7253 10.7257 13.3488 10.7257 13.6466 10.4592L16.4494 7.94252C16.4494 7.94252 16.4501 7.94139 16.4507 7.94088C16.4507 7.94088 16.4519 7.94027 16.4525 7.93975L25.074 0.198405C24.7737 0.0740737 24.4427 0 24.0907 0Z" fill="white"/>
<path d="M0.250724 0.904541C0.0953441 1.18574 0 1.49788 0 1.83224V14.4904C0 14.8247 0.0952394 15.1369 0.250671 15.4181L8.33308 8.16155L0.250724 0.904541Z" fill="white"/>
<path d="M26.0823 0.904541L18 8.16164L26.0823 15.4183C26.2377 15.1371 26.333 14.8249 26.333 14.4905V1.83234C26.333 1.49788 26.2377 1.18574 26.0823 0.904541Z" fill="white"/>
</svg>
