<svg width="28" height="28" viewBox="0 0 28 28" fill="none" xmlns="http://www.w3.org/2000/svg">
<path fill-rule="evenodd" clip-rule="evenodd" d="M23.9204 4.04361C21.2883 1.43743 17.7878 0.00152845 14.0586 0C6.37408 0 0.120032 6.18498 0.116941 13.7868C0.115911 16.2169 0.757801 18.5891 1.97787 20.68L0 27.8247L7.39066 25.9073C9.42709 27.0059 11.7197 27.5849 14.0529 27.5856H14.0587C21.7423 27.5856 27.9971 21.4001 28 13.7979C28.0015 10.1136 26.5527 6.64963 23.9204 4.04361ZM14.0586 25.257H14.0537C11.9746 25.2562 9.93538 24.7036 8.15602 23.6596L7.73307 23.4112L3.34734 24.549L4.51796 20.3201L4.24235 19.8866C3.08238 18.0619 2.46985 15.953 2.47088 13.7877C2.47329 7.46922 7.6716 2.32869 14.0632 2.32869C17.1583 2.3297 20.0677 3.52326 22.2554 5.68942C24.4432 7.85558 25.6473 10.7348 25.6462 13.797C25.6435 20.116 20.4455 25.257 14.0586 25.257ZM20.4146 16.6741C20.0664 16.5015 18.3536 15.6684 18.0342 15.5532C17.7152 15.4382 17.4827 15.381 17.2507 15.7258C17.0183 16.0705 16.3508 16.8466 16.1475 17.0764C15.9442 17.3064 15.7412 17.3352 15.3928 17.1627C15.0444 16.9903 13.922 16.6264 12.5914 15.4527C11.5559 14.5392 10.8568 13.411 10.6535 13.0663C10.4505 12.7212 10.6518 12.5527 10.8063 12.3632C11.1834 11.9 11.5611 11.4145 11.6771 11.1847C11.7934 10.9548 11.7352 10.7535 11.6479 10.5812C11.5611 10.4088 10.8644 8.71304 10.5742 8.02303C10.2912 7.35153 10.0042 7.44222 9.79028 7.43169C9.58731 7.42167 9.35497 7.41963 9.12263 7.41963C8.89047 7.41963 8.51303 7.50573 8.19363 7.85082C7.8744 8.19574 6.97459 9.02909 6.97459 10.7248C6.97459 12.4206 8.22282 14.0587 8.39694 14.2887C8.57107 14.5186 10.8534 17.9984 14.3477 19.4905C15.1789 19.8458 15.8276 20.0576 16.3337 20.2164C17.1682 20.4786 17.9274 20.4416 18.5277 20.3529C19.1971 20.2539 20.5886 19.5194 20.8791 18.7147C21.1693 17.9099 21.1693 17.2203 21.0821 17.0764C20.9952 16.9327 20.7629 16.8466 20.4146 16.6741Z" fill="white"/>
</svg>
