<svg width="1287" height="100" viewBox="0 0 1287 100" fill="none" xmlns="http://www.w3.org/2000/svg">
<path d="M22.68 15.92V21.4H15.24V44H8.4V21.4H0.96V15.92H22.68ZM36.4808 37.642C36.4808 38.082 36.4515 38.478 36.3928 38.83H27.4828C27.5561 39.71 27.8641 40.3993 28.4068 40.898C28.9495 41.3967 29.6168 41.646 30.4088 41.646C31.5528 41.646 32.3668 41.1547 32.8508 40.172H36.1728C35.8208 41.3453 35.1461 42.3133 34.1488 43.076C33.1515 43.824 31.9268 44.198 30.4748 44.198C29.3015 44.198 28.2455 43.9413 27.3068 43.428C26.3828 42.9 25.6568 42.1593 25.1288 41.206C24.6155 40.2527 24.3588 39.1527 24.3588 37.906C24.3588 36.6447 24.6155 35.5373 25.1288 34.584C25.6421 33.6307 26.3608 32.8973 27.2848 32.384C28.2088 31.8707 29.2721 31.614 30.4748 31.614C31.6335 31.614 32.6675 31.8633 33.5768 32.362C34.5008 32.8607 35.2121 33.572 35.7108 34.496C36.2241 35.4053 36.4808 36.454 36.4808 37.642ZM33.2908 36.762C33.2761 35.97 32.9901 35.3393 32.4328 34.87C31.8755 34.386 31.1935 34.144 30.3868 34.144C29.6241 34.144 28.9788 34.3787 28.4508 34.848C27.9375 35.3027 27.6221 35.9407 27.5048 36.762H33.2908ZM37.9369 37.906C37.9369 36.6447 38.1936 35.5447 38.7069 34.606C39.2203 33.6527 39.9316 32.9193 40.8409 32.406C41.7503 31.878 42.7916 31.614 43.9649 31.614C45.4756 31.614 46.7223 31.9953 47.7049 32.758C48.7023 33.506 49.3696 34.562 49.7069 35.926H46.3849C46.2089 35.398 45.9083 34.9873 45.4829 34.694C45.0723 34.386 44.5589 34.232 43.9429 34.232C43.0629 34.232 42.3663 34.5547 41.8529 35.2C41.3396 35.8307 41.0829 36.7327 41.0829 37.906C41.0829 39.0647 41.3396 39.9667 41.8529 40.612C42.3663 41.2427 43.0629 41.558 43.9429 41.558C45.1896 41.558 46.0036 41.0007 46.3849 39.886H49.7069C49.3696 41.206 48.7023 42.2547 47.7049 43.032C46.7076 43.8093 45.4609 44.198 43.9649 44.198C42.7916 44.198 41.7503 43.9413 40.8409 43.428C39.9316 42.9 39.2203 42.1667 38.7069 41.228C38.1936 40.2747 37.9369 39.1673 37.9369 37.906ZM58.8273 31.636C59.7513 31.636 60.5726 31.8413 61.2913 32.252C62.01 32.648 62.5673 33.242 62.9633 34.034C63.374 34.8113 63.5793 35.75 63.5793 36.85V44H60.4993V37.268C60.4993 36.3 60.2573 35.5593 59.7733 35.046C59.2893 34.518 58.6293 34.254 57.7933 34.254C56.9426 34.254 56.268 34.518 55.7693 35.046C55.2853 35.5593 55.0433 36.3 55.0433 37.268V44H51.9633V27.72H55.0433V33.33C55.4393 32.802 55.9673 32.3913 56.6273 32.098C57.2873 31.79 58.0206 31.636 58.8273 31.636ZM74.8304 31.13V34.98H80.0004V37.422H74.8304V41.492H80.6604V44H71.7504V28.622H80.6604V31.13H74.8304ZM90.2134 31.636C91.6654 31.636 92.8387 32.098 93.7334 33.022C94.6281 33.9313 95.0754 35.2073 95.0754 36.85V44H91.9954V37.268C91.9954 36.3 91.7534 35.5593 91.2694 35.046C90.7854 34.518 90.1254 34.254 89.2894 34.254C88.4387 34.254 87.7641 34.518 87.2654 35.046C86.7814 35.5593 86.5394 36.3 86.5394 37.268V44H83.4594V31.812H86.5394V33.33C86.9501 32.802 87.4707 32.3913 88.1014 32.098C88.7467 31.79 89.4507 31.636 90.2134 31.636ZM97.2123 37.862C97.2123 36.63 97.4543 35.5373 97.9383 34.584C98.437 33.6307 99.1043 32.8973 99.9403 32.384C100.791 31.8707 101.737 31.614 102.778 31.614C103.688 31.614 104.48 31.7973 105.154 32.164C105.844 32.5307 106.394 32.9927 106.804 33.55V31.812H109.906V44H106.804V42.218C106.408 42.79 105.858 43.2667 105.154 43.648C104.465 44.0147 103.666 44.198 102.756 44.198C101.73 44.198 100.791 43.934 99.9403 43.406C99.1043 42.878 98.437 42.1373 97.9383 41.184C97.4543 40.216 97.2123 39.1087 97.2123 37.862ZM106.804 37.906C106.804 37.158 106.658 36.52 106.364 35.992C106.071 35.4493 105.675 35.0387 105.176 34.76C104.678 34.4667 104.142 34.32 103.57 34.32C102.998 34.32 102.47 34.4593 101.986 34.738C101.502 35.0167 101.106 35.4273 100.798 35.97C100.505 36.498 100.358 37.1287 100.358 37.862C100.358 38.5953 100.505 39.2407 100.798 39.798C101.106 40.3407 101.502 40.7587 101.986 41.052C102.485 41.3453 103.013 41.492 103.57 41.492C104.142 41.492 104.678 41.3527 105.176 41.074C105.675 40.7807 106.071 40.37 106.364 39.842C106.658 39.2993 106.804 38.654 106.804 37.906ZM115.994 33.594C116.39 33.0073 116.933 32.5307 117.622 32.164C118.326 31.7973 119.126 31.614 120.02 31.614C121.062 31.614 122 31.8707 122.836 32.384C123.687 32.8973 124.354 33.6307 124.838 34.584C125.337 35.5227 125.586 36.6153 125.586 37.862C125.586 39.1087 125.337 40.216 124.838 41.184C124.354 42.1373 123.687 42.878 122.836 43.406C122 43.934 121.062 44.198 120.02 44.198C119.111 44.198 118.312 44.022 117.622 43.67C116.948 43.3033 116.405 42.834 115.994 42.262V44H112.914V27.72H115.994V33.594ZM122.44 37.862C122.44 37.1287 122.286 36.498 121.978 35.97C121.685 35.4273 121.289 35.0167 120.79 34.738C120.306 34.4593 119.778 34.32 119.206 34.32C118.649 34.32 118.121 34.4667 117.622 34.76C117.138 35.0387 116.742 35.4493 116.434 35.992C116.141 36.5347 115.994 37.1727 115.994 37.906C115.994 38.6393 116.141 39.2773 116.434 39.82C116.742 40.3627 117.138 40.7807 117.622 41.074C118.121 41.3527 118.649 41.492 119.206 41.492C119.778 41.492 120.306 41.3453 120.79 41.052C121.289 40.7587 121.685 40.3407 121.978 39.798C122.286 39.2553 122.44 38.61 122.44 37.862ZM130.905 27.72V44H127.825V27.72H130.905ZM145.278 37.642C145.278 38.082 145.248 38.478 145.19 38.83H136.28C136.353 39.71 136.661 40.3993 137.204 40.898C137.746 41.3967 138.414 41.646 139.206 41.646C140.35 41.646 141.164 41.1547 141.648 40.172H144.97C144.618 41.3453 143.943 42.3133 142.946 43.076C141.948 43.824 140.724 44.198 139.272 44.198C138.098 44.198 137.042 43.9413 136.104 43.428C135.18 42.9 134.454 42.1593 133.926 41.206C133.412 40.2527 133.156 39.1527 133.156 37.906C133.156 36.6447 133.412 35.5373 133.926 34.584C134.439 33.6307 135.158 32.8973 136.082 32.384C137.006 31.8707 138.069 31.614 139.272 31.614C140.43 31.614 141.464 31.8633 142.374 32.362C143.298 32.8607 144.009 33.572 144.508 34.496C145.021 35.4053 145.278 36.454 145.278 37.642ZM142.088 36.762C142.073 35.97 141.787 35.3393 141.23 34.87C140.672 34.386 139.99 34.144 139.184 34.144C138.421 34.144 137.776 34.3787 137.248 34.848C136.734 35.3027 136.419 35.9407 136.302 36.762H142.088ZM146.734 37.862C146.734 36.63 146.976 35.5373 147.46 34.584C147.958 33.6307 148.633 32.8973 149.484 32.384C150.334 31.8707 151.28 31.614 152.322 31.614C153.114 31.614 153.869 31.79 154.588 32.142C155.306 32.4793 155.878 32.934 156.304 33.506V27.72H159.428V44H156.304V42.196C155.922 42.7973 155.387 43.2813 154.698 43.648C154.008 44.0147 153.209 44.198 152.3 44.198C151.273 44.198 150.334 43.934 149.484 43.406C148.633 42.878 147.958 42.1373 147.46 41.184C146.976 40.216 146.734 39.1087 146.734 37.862ZM156.326 37.906C156.326 37.158 156.179 36.52 155.886 35.992C155.592 35.4493 155.196 35.0387 154.698 34.76C154.199 34.4667 153.664 34.32 153.092 34.32C152.52 34.32 151.992 34.4593 151.508 34.738C151.024 35.0167 150.628 35.4273 150.32 35.97C150.026 36.498 149.88 37.1287 149.88 37.862C149.88 38.5953 150.026 39.2407 150.32 39.798C150.628 40.3407 151.024 40.7587 151.508 41.052C152.006 41.3453 152.534 41.492 153.092 41.492C153.664 41.492 154.199 41.3527 154.698 41.074C155.196 40.7807 155.592 40.37 155.886 39.842C156.179 39.2993 156.326 38.654 156.326 37.906ZM170.714 28.644V38.148C170.714 39.1893 170.985 39.9887 171.528 40.546C172.071 41.0887 172.833 41.36 173.816 41.36C174.813 41.36 175.583 41.0887 176.126 40.546C176.669 39.9887 176.94 39.1893 176.94 38.148V28.644H180.042V38.126C180.042 39.4313 179.756 40.5387 179.184 41.448C178.627 42.3427 177.871 43.0173 176.918 43.472C175.979 43.9267 174.931 44.154 173.772 44.154C172.628 44.154 171.587 43.9267 170.648 43.472C169.724 43.0173 168.991 42.3427 168.448 41.448C167.905 40.5387 167.634 39.4313 167.634 38.126V28.644H170.714ZM187.682 44.198C186.685 44.198 185.79 44.022 184.998 43.67C184.206 43.3033 183.575 42.812 183.106 42.196C182.651 41.58 182.402 40.898 182.358 40.15H185.46C185.519 40.6193 185.746 41.008 186.142 41.316C186.553 41.624 187.059 41.778 187.66 41.778C188.247 41.778 188.701 41.6607 189.024 41.426C189.361 41.1913 189.53 40.8907 189.53 40.524C189.53 40.128 189.325 39.8347 188.914 39.644C188.518 39.4387 187.88 39.2187 187 38.984C186.091 38.764 185.343 38.5367 184.756 38.302C184.184 38.0673 183.685 37.708 183.26 37.224C182.849 36.74 182.644 36.0873 182.644 35.266C182.644 34.5913 182.835 33.9753 183.216 33.418C183.612 32.8607 184.169 32.4207 184.888 32.098C185.621 31.7753 186.479 31.614 187.462 31.614C188.914 31.614 190.073 31.9807 190.938 32.714C191.803 33.4327 192.28 34.408 192.368 35.64H189.42C189.376 35.156 189.171 34.7747 188.804 34.496C188.452 34.2027 187.975 34.056 187.374 34.056C186.817 34.056 186.384 34.1587 186.076 34.364C185.783 34.5693 185.636 34.8553 185.636 35.222C185.636 35.6327 185.841 35.948 186.252 36.168C186.663 36.3733 187.301 36.586 188.166 36.806C189.046 37.026 189.772 37.2533 190.344 37.488C190.916 37.7227 191.407 38.0893 191.818 38.588C192.243 39.072 192.463 39.7173 192.478 40.524C192.478 41.228 192.28 41.8587 191.884 42.416C191.503 42.9733 190.945 43.4133 190.212 43.736C189.493 44.044 188.65 44.198 187.682 44.198ZM206.336 37.642C206.336 38.082 206.307 38.478 206.248 38.83H197.338C197.412 39.71 197.72 40.3993 198.262 40.898C198.805 41.3967 199.472 41.646 200.264 41.646C201.408 41.646 202.222 41.1547 202.706 40.172H206.028C205.676 41.3453 205.002 42.3133 204.004 43.076C203.007 43.824 201.782 44.198 200.33 44.198C199.157 44.198 198.101 43.9413 197.162 43.428C196.238 42.9 195.512 42.1593 194.984 41.206C194.471 40.2527 194.214 39.1527 194.214 37.906C194.214 36.6447 194.471 35.5373 194.984 34.584C195.498 33.6307 196.216 32.8973 197.14 32.384C198.064 31.8707 199.128 31.614 200.33 31.614C201.489 31.614 202.523 31.8633 203.432 32.362C204.356 32.8607 205.068 33.572 205.566 34.496C206.08 35.4053 206.336 36.454 206.336 37.642ZM203.146 36.762C203.132 35.97 202.846 35.3393 202.288 34.87C201.731 34.386 201.049 34.144 200.242 34.144C199.48 34.144 198.834 34.3787 198.306 34.848C197.793 35.3027 197.478 35.9407 197.36 36.762H203.146ZM211.664 33.704C212.06 33.0587 212.574 32.5527 213.204 32.186C213.85 31.8193 214.583 31.636 215.404 31.636V34.87H214.59C213.622 34.87 212.889 35.0973 212.39 35.552C211.906 36.0067 211.664 36.7987 211.664 37.928V44H208.584V31.812H211.664V33.704ZM11 61.644V64.13H4.598V68.068H9.504V70.51H4.598V77H1.518V61.644H11ZM16.264 66.704C16.66 66.0587 17.1733 65.5527 17.804 65.186C18.4493 64.8193 19.1827 64.636 20.004 64.636V67.87H19.19C18.222 67.87 17.4887 68.0973 16.99 68.552C16.506 69.0067 16.264 69.7987 16.264 70.928V77H13.184V64.812H16.264V66.704ZM23.6405 63.36C23.0979 63.36 22.6432 63.1913 22.2765 62.854C21.9245 62.502 21.7485 62.0693 21.7485 61.556C21.7485 61.0427 21.9245 60.6173 22.2765 60.28C22.6432 59.928 23.0979 59.752 23.6405 59.752C24.1832 59.752 24.6305 59.928 24.9825 60.28C25.3492 60.6173 25.5325 61.0427 25.5325 61.556C25.5325 62.0693 25.3492 62.502 24.9825 62.854C24.6305 63.1913 24.1832 63.36 23.6405 63.36ZM25.1585 64.812V77H22.0785V64.812H25.1585ZM39.5316 70.642C39.5316 71.082 39.5023 71.478 39.4436 71.83H30.5336C30.6069 72.71 30.9149 73.3993 31.4576 73.898C32.0003 74.3967 32.6676 74.646 33.4596 74.646C34.6036 74.646 35.4176 74.1547 35.9016 73.172H39.2236C38.8716 74.3453 38.1969 75.3133 37.1996 76.076C36.2023 76.824 34.9776 77.198 33.5256 77.198C32.3523 77.198 31.2963 76.9413 30.3576 76.428C29.4336 75.9 28.7076 75.1593 28.1796 74.206C27.6663 73.2527 27.4096 72.1527 27.4096 70.906C27.4096 69.6447 27.6663 68.5373 28.1796 67.584C28.6929 66.6307 29.4116 65.8973 30.3356 65.384C31.2596 64.8707 32.3229 64.614 33.5256 64.614C34.6843 64.614 35.7183 64.8633 36.6276 65.362C37.5516 65.8607 38.2629 66.572 38.7616 67.496C39.2749 68.4053 39.5316 69.454 39.5316 70.642ZM36.3416 69.762C36.3269 68.97 36.0409 68.3393 35.4836 67.87C34.9263 67.386 34.2443 67.144 33.4376 67.144C32.6749 67.144 32.0296 67.3787 31.5016 67.848C30.9883 68.3027 30.6729 68.9407 30.5556 69.762H36.3416ZM48.5337 64.636C49.9857 64.636 51.1591 65.098 52.0537 66.022C52.9484 66.9313 53.3957 68.2073 53.3957 69.85V77H50.3157V70.268C50.3157 69.3 50.0737 68.5593 49.5897 68.046C49.1057 67.518 48.4457 67.254 47.6097 67.254C46.7591 67.254 46.0844 67.518 45.5857 68.046C45.1017 68.5593 44.8597 69.3 44.8597 70.268V77H41.7797V64.812H44.8597V66.33C45.2704 65.802 45.7911 65.3913 46.4217 65.098C47.0671 64.79 47.7711 64.636 48.5337 64.636ZM55.5326 70.862C55.5326 69.63 55.7746 68.5373 56.2586 67.584C56.7573 66.6307 57.432 65.8973 58.2826 65.384C59.1333 64.8707 60.0793 64.614 61.1206 64.614C61.9126 64.614 62.668 64.79 63.3866 65.142C64.1053 65.4793 64.6773 65.934 65.1026 66.506V60.72H68.2266V77H65.1026V75.196C64.7213 75.7973 64.186 76.2813 63.4966 76.648C62.8073 77.0147 62.008 77.198 61.0986 77.198C60.072 77.198 59.1333 76.934 58.2826 76.406C57.432 75.878 56.7573 75.1373 56.2586 74.184C55.7746 73.216 55.5326 72.1087 55.5326 70.862ZM65.1246 70.906C65.1246 70.158 64.978 69.52 64.6846 68.992C64.3913 68.4493 63.9953 68.0387 63.4966 67.76C62.998 67.4667 62.4626 67.32 61.8906 67.32C61.3186 67.32 60.7906 67.4593 60.3066 67.738C59.8226 68.0167 59.4266 68.4273 59.1186 68.97C58.8253 69.498 58.6786 70.1287 58.6786 70.862C58.6786 71.5953 58.8253 72.2407 59.1186 72.798C59.4266 73.3407 59.8226 73.7587 60.3066 74.052C60.8053 74.3453 61.3333 74.492 61.8906 74.492C62.4626 74.492 62.998 74.3527 63.4966 74.074C63.9953 73.7807 64.3913 73.37 64.6846 72.842C64.978 72.2993 65.1246 71.654 65.1246 70.906ZM74.3148 60.72V77H71.2348V60.72H74.3148ZM89.0178 64.812L81.4718 82.764H78.1938L80.8338 76.692L75.9498 64.812H79.4038L82.5498 73.326L85.7398 64.812H89.0178ZM107.118 66.396C107.118 67.2173 106.92 67.9873 106.524 68.706C106.143 69.4247 105.534 70.004 104.698 70.444C103.877 70.884 102.836 71.104 101.574 71.104H99.0003V77H95.9203V61.644H101.574C102.762 61.644 103.774 61.8493 104.61 62.26C105.446 62.6707 106.07 63.2353 106.48 63.954C106.906 64.6727 107.118 65.4867 107.118 66.396ZM101.442 68.618C102.293 68.618 102.924 68.4273 103.334 68.046C103.745 67.65 103.95 67.1 103.95 66.396C103.95 64.9 103.114 64.152 101.442 64.152H99.0003V68.618H101.442ZM112.385 60.72V77H109.305V60.72H112.385ZM114.636 70.862C114.636 69.63 114.878 68.5373 115.362 67.584C115.861 66.6307 116.528 65.8973 117.364 65.384C118.215 64.8707 119.161 64.614 120.202 64.614C121.111 64.614 121.903 64.7973 122.578 65.164C123.267 65.5307 123.817 65.9927 124.228 66.55V64.812H127.33V77H124.228V75.218C123.832 75.79 123.282 76.2667 122.578 76.648C121.889 77.0147 121.089 77.198 120.18 77.198C119.153 77.198 118.215 76.934 117.364 76.406C116.528 75.878 115.861 75.1373 115.362 74.184C114.878 73.216 114.636 72.1087 114.636 70.862ZM124.228 70.906C124.228 70.158 124.081 69.52 123.788 68.992C123.495 68.4493 123.099 68.0387 122.6 67.76C122.101 67.4667 121.566 67.32 120.994 67.32C120.422 67.32 119.894 67.4593 119.41 67.738C118.926 68.0167 118.53 68.4273 118.222 68.97C117.929 69.498 117.782 70.1287 117.782 70.862C117.782 71.5953 117.929 72.2407 118.222 72.798C118.53 73.3407 118.926 73.7587 119.41 74.052C119.909 74.3453 120.437 74.492 120.994 74.492C121.566 74.492 122.101 74.3527 122.6 74.074C123.099 73.7807 123.495 73.37 123.788 72.842C124.081 72.2993 124.228 71.654 124.228 70.906ZM133.924 67.342V73.238C133.924 73.6487 134.02 73.9493 134.21 74.14C134.416 74.316 134.753 74.404 135.222 74.404H136.652V77H134.716C132.12 77 130.822 75.7387 130.822 73.216V67.342H129.37V64.812H130.822V61.798H133.924V64.812H136.652V67.342H133.924ZM144.456 67.342H142.322V77H139.198V67.342H137.812V64.812H139.198V64.196C139.198 62.7 139.623 61.6 140.474 60.896C141.324 60.192 142.608 59.862 144.324 59.906V62.502C143.576 62.4873 143.055 62.612 142.762 62.876C142.468 63.14 142.322 63.6167 142.322 64.306V64.812H144.456V67.342ZM151.864 77.198C150.69 77.198 149.634 76.9413 148.696 76.428C147.757 75.9 147.016 75.1593 146.474 74.206C145.946 73.2527 145.682 72.1527 145.682 70.906C145.682 69.6593 145.953 68.5593 146.496 67.606C147.053 66.6527 147.808 65.9193 148.762 65.406C149.715 64.878 150.778 64.614 151.952 64.614C153.125 64.614 154.188 64.878 155.142 65.406C156.095 65.9193 156.843 66.6527 157.386 67.606C157.943 68.5593 158.222 69.6593 158.222 70.906C158.222 72.1527 157.936 73.2527 157.364 74.206C156.806 75.1593 156.044 75.9 155.076 76.428C154.122 76.9413 153.052 77.198 151.864 77.198ZM151.864 74.514C152.421 74.514 152.942 74.382 153.426 74.118C153.924 73.8393 154.32 73.4287 154.614 72.886C154.907 72.3433 155.054 71.6833 155.054 70.906C155.054 69.7473 154.746 68.86 154.13 68.244C153.528 67.6133 152.788 67.298 151.908 67.298C151.028 67.298 150.287 67.6133 149.686 68.244C149.099 68.86 148.806 69.7473 148.806 70.906C148.806 72.0647 149.092 72.9593 149.664 73.59C150.25 74.206 150.984 74.514 151.864 74.514ZM163.561 66.704C163.957 66.0587 164.47 65.5527 165.101 65.186C165.746 64.8193 166.48 64.636 167.301 64.636V67.87H166.487C165.519 67.87 164.786 68.0973 164.287 68.552C163.803 69.0067 163.561 69.7987 163.561 70.928V77H160.481V64.812H163.561V66.704ZM184.511 64.636C186.007 64.636 187.21 65.098 188.119 66.022C189.043 66.9313 189.505 68.2073 189.505 69.85V77H186.425V70.268C186.425 69.3147 186.183 68.5887 185.699 68.09C185.215 67.5767 184.555 67.32 183.719 67.32C182.883 67.32 182.216 67.5767 181.717 68.09C181.233 68.5887 180.991 69.3147 180.991 70.268V77H177.911V70.268C177.911 69.3147 177.669 68.5887 177.185 68.09C176.701 67.5767 176.041 67.32 175.205 67.32C174.355 67.32 173.68 67.5767 173.181 68.09C172.697 68.5887 172.455 69.3147 172.455 70.268V77H169.375V64.812H172.455V66.286C172.851 65.7727 173.357 65.3693 173.973 65.076C174.604 64.7827 175.293 64.636 176.041 64.636C176.995 64.636 177.845 64.8413 178.593 65.252C179.341 65.648 179.921 66.22 180.331 66.968C180.727 66.264 181.299 65.6993 182.047 65.274C182.81 64.8487 183.631 64.636 184.511 64.636Z" fill="#042F7C"/>
<path d="M287.8 44L281.96 33.4H280.32V44H273.48V15.92H284.96C287.173 15.92 289.053 16.3067 290.6 17.08C292.173 17.8533 293.347 18.92 294.12 20.28C294.893 21.6133 295.28 23.1067 295.28 24.76C295.28 26.6267 294.747 28.2933 293.68 29.76C292.64 31.2267 291.093 32.2667 289.04 32.88L295.52 44H287.8ZM280.32 28.56H284.56C285.813 28.56 286.747 28.2533 287.36 27.64C288 27.0267 288.32 26.16 288.32 25.04C288.32 23.9733 288 23.1333 287.36 22.52C286.747 21.9067 285.813 21.6 284.56 21.6H280.32V28.56ZM309.942 37.642C309.942 38.082 309.912 38.478 309.854 38.83H300.944C301.017 39.71 301.325 40.3993 301.868 40.898C302.41 41.3967 303.078 41.646 303.87 41.646C305.014 41.646 305.828 41.1547 306.312 40.172H309.634C309.282 41.3453 308.607 42.3133 307.61 43.076C306.612 43.824 305.388 44.198 303.936 44.198C302.762 44.198 301.706 43.9413 300.768 43.428C299.844 42.9 299.118 42.1593 298.59 41.206C298.076 40.2527 297.82 39.1527 297.82 37.906C297.82 36.6447 298.076 35.5373 298.59 34.584C299.103 33.6307 299.822 32.8973 300.746 32.384C301.67 31.8707 302.733 31.614 303.936 31.614C305.094 31.614 306.128 31.8633 307.038 32.362C307.962 32.8607 308.673 33.572 309.172 34.496C309.685 35.4053 309.942 36.454 309.942 37.642ZM306.752 36.762C306.737 35.97 306.451 35.3393 305.894 34.87C305.336 34.386 304.654 34.144 303.848 34.144C303.085 34.144 302.44 34.3787 301.912 34.848C301.398 35.3027 301.083 35.9407 300.966 36.762H306.752ZM315.27 27.72V44H312.19V27.72H315.27ZM319.875 30.36C319.332 30.36 318.878 30.1913 318.511 29.854C318.159 29.502 317.983 29.0693 317.983 28.556C317.983 28.0427 318.159 27.6173 318.511 27.28C318.878 26.928 319.332 26.752 319.875 26.752C320.418 26.752 320.865 26.928 321.217 27.28C321.584 27.6173 321.767 28.0427 321.767 28.556C321.767 29.0693 321.584 29.502 321.217 29.854C320.865 30.1913 320.418 30.36 319.875 30.36ZM321.393 31.812V44H318.313V31.812H321.393ZM323.644 37.862C323.644 36.63 323.886 35.5373 324.37 34.584C324.869 33.6307 325.536 32.8973 326.372 32.384C327.223 31.8707 328.169 31.614 329.21 31.614C330.119 31.614 330.911 31.7973 331.586 32.164C332.275 32.5307 332.825 32.9927 333.236 33.55V31.812H336.338V44H333.236V42.218C332.84 42.79 332.29 43.2667 331.586 43.648C330.897 44.0147 330.097 44.198 329.188 44.198C328.161 44.198 327.223 43.934 326.372 43.406C325.536 42.878 324.869 42.1373 324.37 41.184C323.886 40.216 323.644 39.1087 323.644 37.862ZM333.236 37.906C333.236 37.158 333.089 36.52 332.796 35.992C332.503 35.4493 332.107 35.0387 331.608 34.76C331.109 34.4667 330.574 34.32 330.002 34.32C329.43 34.32 328.902 34.4593 328.418 34.738C327.934 35.0167 327.538 35.4273 327.23 35.97C326.937 36.498 326.79 37.1287 326.79 37.862C326.79 38.5953 326.937 39.2407 327.23 39.798C327.538 40.3407 327.934 40.7587 328.418 41.052C328.917 41.3453 329.445 41.492 330.002 41.492C330.574 41.492 331.109 41.3527 331.608 41.074C332.107 40.7807 332.503 40.37 332.796 39.842C333.089 39.2993 333.236 38.654 333.236 37.906ZM342.426 33.594C342.822 33.0073 343.365 32.5307 344.054 32.164C344.758 31.7973 345.557 31.614 346.452 31.614C347.493 31.614 348.432 31.8707 349.268 32.384C350.119 32.8973 350.786 33.6307 351.27 34.584C351.769 35.5227 352.018 36.6153 352.018 37.862C352.018 39.1087 351.769 40.216 351.27 41.184C350.786 42.1373 350.119 42.878 349.268 43.406C348.432 43.934 347.493 44.198 346.452 44.198C345.543 44.198 344.743 44.022 344.054 43.67C343.379 43.3033 342.837 42.834 342.426 42.262V44H339.346V27.72H342.426V33.594ZM348.872 37.862C348.872 37.1287 348.718 36.498 348.41 35.97C348.117 35.4273 347.721 35.0167 347.222 34.738C346.738 34.4593 346.21 34.32 345.638 34.32C345.081 34.32 344.553 34.4667 344.054 34.76C343.57 35.0387 343.174 35.4493 342.866 35.992C342.573 36.5347 342.426 37.1727 342.426 37.906C342.426 38.6393 342.573 39.2773 342.866 39.82C343.174 40.3627 343.57 40.7807 344.054 41.074C344.553 41.3527 345.081 41.492 345.638 41.492C346.21 41.492 346.738 41.3453 347.222 41.052C347.721 40.7587 348.117 40.3407 348.41 39.798C348.718 39.2553 348.872 38.61 348.872 37.862ZM357.336 27.72V44H354.256V27.72H357.336ZM371.709 37.642C371.709 38.082 371.68 38.478 371.621 38.83H362.711C362.785 39.71 363.093 40.3993 363.635 40.898C364.178 41.3967 364.845 41.646 365.637 41.646C366.781 41.646 367.595 41.1547 368.079 40.172H371.401C371.049 41.3453 370.375 42.3133 369.377 43.076C368.38 43.824 367.155 44.198 365.703 44.198C364.53 44.198 363.474 43.9413 362.535 43.428C361.611 42.9 360.885 42.1593 360.357 41.206C359.844 40.2527 359.587 39.1527 359.587 37.906C359.587 36.6447 359.844 35.5373 360.357 34.584C360.871 33.6307 361.589 32.8973 362.513 32.384C363.437 31.8707 364.501 31.614 365.703 31.614C366.862 31.614 367.896 31.8633 368.805 32.362C369.729 32.8607 370.441 33.572 370.939 34.496C371.453 35.4053 371.709 36.454 371.709 37.642ZM368.519 36.762C368.505 35.97 368.219 35.3393 367.661 34.87C367.104 34.386 366.422 34.144 365.615 34.144C364.853 34.144 364.207 34.3787 363.679 34.848C363.166 35.3027 362.851 35.9407 362.733 36.762H368.519ZM391.014 44L389.342 42.35C387.919 43.626 386.181 44.264 384.128 44.264C382.998 44.264 382.001 44.0733 381.136 43.692C380.285 43.296 379.625 42.746 379.156 42.042C378.686 41.3233 378.452 40.4947 378.452 39.556C378.452 38.544 378.738 37.6347 379.31 36.828C379.882 36.0213 380.725 35.3687 381.84 34.87C381.444 34.386 381.158 33.924 380.982 33.484C380.806 33.0293 380.718 32.5453 380.718 32.032C380.718 31.328 380.901 30.6973 381.268 30.14C381.634 29.568 382.155 29.1207 382.83 28.798C383.519 28.4753 384.318 28.314 385.228 28.314C386.152 28.314 386.944 28.49 387.604 28.842C388.264 29.194 388.755 29.6633 389.078 30.25C389.4 30.8367 389.54 31.4893 389.496 32.208H386.504C386.518 31.724 386.401 31.3573 386.152 31.108C385.902 30.844 385.565 30.712 385.14 30.712C384.729 30.712 384.384 30.8367 384.106 31.086C383.842 31.3207 383.71 31.6287 383.71 32.01C383.71 32.3767 383.82 32.7433 384.04 33.11C384.26 33.462 384.619 33.902 385.118 34.43L388.99 38.258C389.019 38.2287 389.041 38.1993 389.056 38.17C389.07 38.1407 389.085 38.1113 389.1 38.082L390.354 35.992H393.566L392.026 38.698C391.732 39.27 391.417 39.8127 391.08 40.326L394.798 44H391.014ZM384.216 41.712C385.418 41.712 386.482 41.2867 387.406 40.436L383.622 36.696C382.199 37.3267 381.488 38.2213 381.488 39.38C381.488 40.04 381.737 40.5973 382.236 41.052C382.734 41.492 383.394 41.712 384.216 41.712ZM271.77 69.3C271.77 67.7893 272.107 66.44 272.782 65.252C273.471 64.0493 274.403 63.118 275.576 62.458C276.764 61.7833 278.091 61.446 279.558 61.446C281.274 61.446 282.777 61.886 284.068 62.766C285.359 63.646 286.261 64.8633 286.774 66.418H283.232C282.88 65.6847 282.381 65.1347 281.736 64.768C281.105 64.4013 280.372 64.218 279.536 64.218C278.641 64.218 277.842 64.4307 277.138 64.856C276.449 65.2667 275.906 65.8533 275.51 66.616C275.129 67.3787 274.938 68.2733 274.938 69.3C274.938 70.312 275.129 71.2067 275.51 71.984C275.906 72.7467 276.449 73.3407 277.138 73.766C277.842 74.1767 278.641 74.382 279.536 74.382C280.372 74.382 281.105 74.1987 281.736 73.832C282.381 73.4507 282.88 72.8933 283.232 72.16H286.774C286.261 73.7293 285.359 74.954 284.068 75.834C282.792 76.6993 281.289 77.132 279.558 77.132C278.091 77.132 276.764 76.802 275.576 76.142C274.403 75.4673 273.471 74.536 272.782 73.348C272.107 72.16 271.77 70.8107 271.77 69.3ZM294.817 77.198C293.643 77.198 292.587 76.9413 291.649 76.428C290.71 75.9 289.969 75.1593 289.427 74.206C288.899 73.2527 288.635 72.1527 288.635 70.906C288.635 69.6593 288.906 68.5593 289.449 67.606C290.006 66.6527 290.761 65.9193 291.715 65.406C292.668 64.878 293.731 64.614 294.905 64.614C296.078 64.614 297.141 64.878 298.095 65.406C299.048 65.9193 299.796 66.6527 300.339 67.606C300.896 68.5593 301.175 69.6593 301.175 70.906C301.175 72.1527 300.889 73.2527 300.317 74.206C299.759 75.1593 298.997 75.9 298.029 76.428C297.075 76.9413 296.005 77.198 294.817 77.198ZM294.817 74.514C295.374 74.514 295.895 74.382 296.379 74.118C296.877 73.8393 297.273 73.4287 297.567 72.886C297.86 72.3433 298.007 71.6833 298.007 70.906C298.007 69.7473 297.699 68.86 297.083 68.244C296.481 67.6133 295.741 67.298 294.861 67.298C293.981 67.298 293.24 67.6133 292.639 68.244C292.052 68.86 291.759 69.7473 291.759 70.906C291.759 72.0647 292.045 72.9593 292.617 73.59C293.203 74.206 293.937 74.514 294.817 74.514ZM308.098 77.198C307.101 77.198 306.206 77.022 305.414 76.67C304.622 76.3033 303.991 75.812 303.522 75.196C303.067 74.58 302.818 73.898 302.774 73.15H305.876C305.935 73.6193 306.162 74.008 306.558 74.316C306.969 74.624 307.475 74.778 308.076 74.778C308.663 74.778 309.117 74.6607 309.44 74.426C309.777 74.1913 309.946 73.8907 309.946 73.524C309.946 73.128 309.741 72.8347 309.33 72.644C308.934 72.4387 308.296 72.2187 307.416 71.984C306.507 71.764 305.759 71.5367 305.172 71.302C304.6 71.0673 304.101 70.708 303.676 70.224C303.265 69.74 303.06 69.0873 303.06 68.266C303.06 67.5913 303.251 66.9753 303.632 66.418C304.028 65.8607 304.585 65.4207 305.304 65.098C306.037 64.7753 306.895 64.614 307.878 64.614C309.33 64.614 310.489 64.9807 311.354 65.714C312.219 66.4327 312.696 67.408 312.784 68.64H309.836C309.792 68.156 309.587 67.7747 309.22 67.496C308.868 67.2027 308.391 67.056 307.79 67.056C307.233 67.056 306.8 67.1587 306.492 67.364C306.199 67.5693 306.052 67.8553 306.052 68.222C306.052 68.6327 306.257 68.948 306.668 69.168C307.079 69.3733 307.717 69.586 308.582 69.806C309.462 70.026 310.188 70.2533 310.76 70.488C311.332 70.7227 311.823 71.0893 312.234 71.588C312.659 72.072 312.879 72.7173 312.894 73.524C312.894 74.228 312.696 74.8587 312.3 75.416C311.919 75.9733 311.361 76.4133 310.628 76.736C309.909 77.044 309.066 77.198 308.098 77.198ZM319.008 67.342V73.238C319.008 73.6487 319.104 73.9493 319.294 74.14C319.5 74.316 319.837 74.404 320.306 74.404H321.736V77H319.8C317.204 77 315.906 75.7387 315.906 73.216V67.342H314.454V64.812H315.906V61.798H319.008V64.812H321.736V67.342H319.008ZM332.274 64.13V67.98H337.444V70.422H332.274V74.492H338.104V77H329.194V61.622H338.104V64.13H332.274ZM346.491 67.342H344.357V77H341.233V67.342H339.847V64.812H341.233V64.196C341.233 62.7 341.658 61.6 342.509 60.896C343.359 60.192 344.643 59.862 346.359 59.906V62.502C345.611 62.4873 345.09 62.612 344.797 62.876C344.503 63.14 344.357 63.6167 344.357 64.306V64.812H346.491V67.342ZM354.075 67.342H351.941V77H348.817V67.342H347.431V64.812H348.817V64.196C348.817 62.7 349.242 61.6 350.093 60.896C350.943 60.192 352.227 59.862 353.943 59.906V62.502C353.195 62.4873 352.674 62.612 352.381 62.876C352.087 63.14 351.941 63.6167 351.941 64.306V64.812H354.075V67.342ZM367.401 70.642C367.401 71.082 367.371 71.478 367.313 71.83H358.403C358.476 72.71 358.784 73.3993 359.327 73.898C359.869 74.3967 360.537 74.646 361.329 74.646C362.473 74.646 363.287 74.1547 363.771 73.172H367.093C366.741 74.3453 366.066 75.3133 365.069 76.076C364.071 76.824 362.847 77.198 361.395 77.198C360.221 77.198 359.165 76.9413 358.227 76.428C357.303 75.9 356.577 75.1593 356.049 74.206C355.535 73.2527 355.279 72.1527 355.279 70.906C355.279 69.6447 355.535 68.5373 356.049 67.584C356.562 66.6307 357.281 65.8973 358.205 65.384C359.129 64.8707 360.192 64.614 361.395 64.614C362.553 64.614 363.587 64.8633 364.497 65.362C365.421 65.8607 366.132 66.572 366.631 67.496C367.144 68.4053 367.401 69.454 367.401 70.642ZM364.211 69.762C364.196 68.97 363.91 68.3393 363.353 67.87C362.795 67.386 362.113 67.144 361.307 67.144C360.544 67.144 359.899 67.3787 359.371 67.848C358.857 68.3027 358.542 68.9407 358.425 69.762H364.211ZM368.857 70.906C368.857 69.6447 369.114 68.5447 369.627 67.606C370.14 66.6527 370.852 65.9193 371.761 65.406C372.67 64.878 373.712 64.614 374.885 64.614C376.396 64.614 377.642 64.9953 378.625 65.758C379.622 66.506 380.29 67.562 380.627 68.926H377.305C377.129 68.398 376.828 67.9873 376.403 67.694C375.992 67.386 375.479 67.232 374.863 67.232C373.983 67.232 373.286 67.5547 372.773 68.2C372.26 68.8307 372.003 69.7327 372.003 70.906C372.003 72.0647 372.26 72.9667 372.773 73.612C373.286 74.2427 373.983 74.558 374.863 74.558C376.11 74.558 376.924 74.0007 377.305 72.886H380.627C380.29 74.206 379.622 75.2547 378.625 76.032C377.628 76.8093 376.381 77.198 374.885 77.198C373.712 77.198 372.67 76.9413 371.761 76.428C370.852 75.9 370.14 75.1667 369.627 74.228C369.114 73.2747 368.857 72.1673 368.857 70.906ZM386.469 67.342V73.238C386.469 73.6487 386.565 73.9493 386.755 74.14C386.961 74.316 387.298 74.404 387.767 74.404H389.197V77H387.261C384.665 77 383.367 75.7387 383.367 73.216V67.342H381.915V64.812H383.367V61.798H386.469V64.812H389.197V67.342H386.469ZM392.975 63.36C392.432 63.36 391.977 63.1913 391.611 62.854C391.259 62.502 391.083 62.0693 391.083 61.556C391.083 61.0427 391.259 60.6173 391.611 60.28C391.977 59.928 392.432 59.752 392.975 59.752C393.517 59.752 393.965 59.928 394.317 60.28C394.683 60.6173 394.867 61.0427 394.867 61.556C394.867 62.0693 394.683 62.502 394.317 62.854C393.965 63.1913 393.517 63.36 392.975 63.36ZM394.493 64.812V77H391.413V64.812H394.493ZM402.618 74.162L405.698 64.812H408.976L404.466 77H400.726L396.238 64.812H399.538L402.618 74.162ZM422.036 70.642C422.036 71.082 422.006 71.478 421.948 71.83H413.038C413.111 72.71 413.419 73.3993 413.962 73.898C414.504 74.3967 415.172 74.646 415.964 74.646C417.108 74.646 417.922 74.1547 418.406 73.172H421.728C421.376 74.3453 420.701 75.3133 419.704 76.076C418.706 76.824 417.482 77.198 416.03 77.198C414.856 77.198 413.8 76.9413 412.862 76.428C411.938 75.9 411.212 75.1593 410.684 74.206C410.17 73.2527 409.913 72.1527 409.913 70.906C409.913 69.6447 410.17 68.5373 410.684 67.584C411.197 66.6307 411.916 65.8973 412.84 65.384C413.764 64.8707 414.827 64.614 416.03 64.614C417.188 64.614 418.222 64.8633 419.132 65.362C420.056 65.8607 420.767 66.572 421.266 67.496C421.779 68.4053 422.036 69.454 422.036 70.642ZM418.846 69.762C418.831 68.97 418.545 68.3393 417.988 67.87C417.43 67.386 416.748 67.144 415.942 67.144C415.179 67.144 414.534 67.3787 414.006 67.848C413.492 68.3027 413.177 68.9407 413.06 69.762H418.846Z" fill="#042F7C"/>
<path d="M494.96 39.04H484.48L482.8 44H475.64L485.8 15.92H493.72L503.88 44H496.64L494.96 39.04ZM493.2 33.76L489.72 23.48L486.28 33.76H493.2ZM505.218 37.862C505.218 36.63 505.46 35.5373 505.944 34.584C506.443 33.6307 507.118 32.8973 507.968 32.384C508.819 31.8707 509.765 31.614 510.806 31.614C511.598 31.614 512.354 31.79 513.072 32.142C513.791 32.4793 514.363 32.934 514.788 33.506V27.72H517.912V44H514.788V42.196C514.407 42.7973 513.872 43.2813 513.182 43.648C512.493 44.0147 511.694 44.198 510.784 44.198C509.758 44.198 508.819 43.934 507.968 43.406C507.118 42.878 506.443 42.1373 505.944 41.184C505.46 40.216 505.218 39.1087 505.218 37.862ZM514.81 37.906C514.81 37.158 514.664 36.52 514.37 35.992C514.077 35.4493 513.681 35.0387 513.182 34.76C512.684 34.4667 512.148 34.32 511.576 34.32C511.004 34.32 510.476 34.4593 509.992 34.738C509.508 35.0167 509.112 35.4273 508.804 35.97C508.511 36.498 508.364 37.1287 508.364 37.862C508.364 38.5953 508.511 39.2407 508.804 39.798C509.112 40.3407 509.508 40.7587 509.992 41.052C510.491 41.3453 511.019 41.492 511.576 41.492C512.148 41.492 512.684 41.3527 513.182 41.074C513.681 40.7807 514.077 40.37 514.37 39.842C514.664 39.2993 514.81 38.654 514.81 37.906ZM526.002 41.162L529.082 31.812H532.36L527.85 44H524.11L519.622 31.812H522.922L526.002 41.162ZM533.298 37.862C533.298 36.63 533.54 35.5373 534.024 34.584C534.523 33.6307 535.19 32.8973 536.026 32.384C536.877 31.8707 537.823 31.614 538.864 31.614C539.774 31.614 540.566 31.7973 541.24 32.164C541.93 32.5307 542.48 32.9927 542.89 33.55V31.812H545.992V44H542.89V42.218C542.494 42.79 541.944 43.2667 541.24 43.648C540.551 44.0147 539.752 44.198 538.842 44.198C537.816 44.198 536.877 43.934 536.026 43.406C535.19 42.878 534.523 42.1373 534.024 41.184C533.54 40.216 533.298 39.1087 533.298 37.862ZM542.89 37.906C542.89 37.158 542.744 36.52 542.45 35.992C542.157 35.4493 541.761 35.0387 541.262 34.76C540.764 34.4667 540.228 34.32 539.656 34.32C539.084 34.32 538.556 34.4593 538.072 34.738C537.588 35.0167 537.192 35.4273 536.884 35.97C536.591 36.498 536.444 37.1287 536.444 37.862C536.444 38.5953 536.591 39.2407 536.884 39.798C537.192 40.3407 537.588 40.7587 538.072 41.052C538.571 41.3453 539.099 41.492 539.656 41.492C540.228 41.492 540.764 41.3527 541.262 41.074C541.761 40.7807 542.157 40.37 542.45 39.842C542.744 39.2993 542.89 38.654 542.89 37.906ZM555.754 31.636C557.206 31.636 558.38 32.098 559.274 33.022C560.169 33.9313 560.616 35.2073 560.616 36.85V44H557.536V37.268C557.536 36.3 557.294 35.5593 556.81 35.046C556.326 34.518 555.666 34.254 554.83 34.254C553.98 34.254 553.305 34.518 552.806 35.046C552.322 35.5593 552.08 36.3 552.08 37.268V44H549V31.812H552.08V33.33C552.491 32.802 553.012 32.3913 553.642 32.098C554.288 31.79 554.992 31.636 555.754 31.636ZM562.753 37.906C562.753 36.6447 563.01 35.5447 563.523 34.606C564.037 33.6527 564.748 32.9193 565.657 32.406C566.567 31.878 567.608 31.614 568.781 31.614C570.292 31.614 571.539 31.9953 572.521 32.758C573.519 33.506 574.186 34.562 574.523 35.926H571.201C571.025 35.398 570.725 34.9873 570.299 34.694C569.889 34.386 569.375 34.232 568.759 34.232C567.879 34.232 567.183 34.5547 566.669 35.2C566.156 35.8307 565.899 36.7327 565.899 37.906C565.899 39.0647 566.156 39.9667 566.669 40.612C567.183 41.2427 567.879 41.558 568.759 41.558C570.006 41.558 570.82 41.0007 571.201 39.886H574.523C574.186 41.206 573.519 42.2547 572.521 43.032C571.524 43.8093 570.277 44.198 568.781 44.198C567.608 44.198 566.567 43.9413 565.657 43.428C564.748 42.9 564.037 42.1667 563.523 41.228C563.01 40.2747 562.753 39.1673 562.753 37.906ZM588.11 37.642C588.11 38.082 588.08 38.478 588.022 38.83H579.112C579.185 39.71 579.493 40.3993 580.036 40.898C580.578 41.3967 581.246 41.646 582.038 41.646C583.182 41.646 583.996 41.1547 584.48 40.172H587.802C587.45 41.3453 586.775 42.3133 585.778 43.076C584.78 43.824 583.556 44.198 582.104 44.198C580.93 44.198 579.874 43.9413 578.936 43.428C578.012 42.9 577.286 42.1593 576.758 41.206C576.244 40.2527 575.988 39.1527 575.988 37.906C575.988 36.6447 576.244 35.5373 576.758 34.584C577.271 33.6307 577.99 32.8973 578.914 32.384C579.838 31.8707 580.901 31.614 582.104 31.614C583.262 31.614 584.296 31.8633 585.206 32.362C586.13 32.8607 586.841 33.572 587.34 34.496C587.853 35.4053 588.11 36.454 588.11 37.642ZM584.92 36.762C584.905 35.97 584.619 35.3393 584.062 34.87C583.504 34.386 582.822 34.144 582.016 34.144C581.253 34.144 580.608 34.3787 580.08 34.848C579.566 35.3027 579.251 35.9407 579.134 36.762H584.92ZM589.566 37.862C589.566 36.63 589.808 35.5373 590.292 34.584C590.791 33.6307 591.465 32.8973 592.316 32.384C593.167 31.8707 594.113 31.614 595.154 31.614C595.946 31.614 596.701 31.79 597.42 32.142C598.139 32.4793 598.711 32.934 599.136 33.506V27.72H602.26V44H599.136V42.196C598.755 42.7973 598.219 43.2813 597.53 43.648C596.841 44.0147 596.041 44.198 595.132 44.198C594.105 44.198 593.167 43.934 592.316 43.406C591.465 42.878 590.791 42.1373 590.292 41.184C589.808 40.216 589.566 39.1087 589.566 37.862ZM599.158 37.906C599.158 37.158 599.011 36.52 598.718 35.992C598.425 35.4493 598.029 35.0387 597.53 34.76C597.031 34.4667 596.496 34.32 595.924 34.32C595.352 34.32 594.824 34.4593 594.34 34.738C593.856 35.0167 593.46 35.4273 593.152 35.97C592.859 36.498 592.712 37.1287 592.712 37.862C592.712 38.5953 592.859 39.2407 593.152 39.798C593.46 40.3407 593.856 40.7587 594.34 41.052C594.839 41.3453 595.367 41.492 595.924 41.492C596.496 41.492 597.031 41.3527 597.53 41.074C598.029 40.7807 598.425 40.37 598.718 39.842C599.011 39.2993 599.158 38.654 599.158 37.906ZM620.96 28.644V31.13H616.868V44H613.788V31.13H609.696V28.644H620.96ZM626.287 33.704C626.683 33.0587 627.197 32.5527 627.827 32.186C628.473 31.8193 629.206 31.636 630.027 31.636V34.87H629.213C628.245 34.87 627.512 35.0973 627.013 35.552C626.529 36.0067 626.287 36.7987 626.287 37.928V44H623.207V31.812H626.287V33.704ZM631.31 37.862C631.31 36.63 631.552 35.5373 632.036 34.584C632.535 33.6307 633.202 32.8973 634.038 32.384C634.889 31.8707 635.835 31.614 636.876 31.614C637.785 31.614 638.577 31.7973 639.252 32.164C639.941 32.5307 640.491 32.9927 640.902 33.55V31.812H644.004V44H640.902V42.218C640.506 42.79 639.956 43.2667 639.252 43.648C638.563 44.0147 637.763 44.198 636.854 44.198C635.827 44.198 634.889 43.934 634.038 43.406C633.202 42.878 632.535 42.1373 632.036 41.184C631.552 40.216 631.31 39.1087 631.31 37.862ZM640.902 37.906C640.902 37.158 640.755 36.52 640.462 35.992C640.169 35.4493 639.773 35.0387 639.274 34.76C638.775 34.4667 638.24 34.32 637.668 34.32C637.096 34.32 636.568 34.4593 636.084 34.738C635.6 35.0167 635.204 35.4273 634.896 35.97C634.603 36.498 634.456 37.1287 634.456 37.862C634.456 38.5953 634.603 39.2407 634.896 39.798C635.204 40.3407 635.6 40.7587 636.084 41.052C636.583 41.3453 637.111 41.492 637.668 41.492C638.24 41.492 638.775 41.3527 639.274 41.074C639.773 40.7807 640.169 40.37 640.462 39.842C640.755 39.2993 640.902 38.654 640.902 37.906ZM653.766 31.636C655.218 31.636 656.391 32.098 657.286 33.022C658.181 33.9313 658.628 35.2073 658.628 36.85V44H655.548V37.268C655.548 36.3 655.306 35.5593 654.822 35.046C654.338 34.518 653.678 34.254 652.842 34.254C651.991 34.254 651.317 34.518 650.818 35.046C650.334 35.5593 650.092 36.3 650.092 37.268V44H647.012V31.812H650.092V33.33C650.503 32.802 651.023 32.3913 651.654 32.098C652.299 31.79 653.003 31.636 653.766 31.636ZM666.221 44.198C665.224 44.198 664.329 44.022 663.537 43.67C662.745 43.3033 662.114 42.812 661.645 42.196C661.19 41.58 660.941 40.898 660.897 40.15H663.999C664.058 40.6193 664.285 41.008 664.681 41.316C665.092 41.624 665.598 41.778 666.199 41.778C666.786 41.778 667.24 41.6607 667.563 41.426C667.9 41.1913 668.069 40.8907 668.069 40.524C668.069 40.128 667.864 39.8347 667.453 39.644C667.057 39.4387 666.419 39.2187 665.539 38.984C664.63 38.764 663.882 38.5367 663.295 38.302C662.723 38.0673 662.224 37.708 661.799 37.224C661.388 36.74 661.183 36.0873 661.183 35.266C661.183 34.5913 661.374 33.9753 661.755 33.418C662.151 32.8607 662.708 32.4207 663.427 32.098C664.16 31.7753 665.018 31.614 666.001 31.614C667.453 31.614 668.612 31.9807 669.477 32.714C670.342 33.4327 670.819 34.408 670.907 35.64H667.959C667.915 35.156 667.71 34.7747 667.343 34.496C666.991 34.2027 666.514 34.056 665.913 34.056C665.356 34.056 664.923 34.1587 664.615 34.364C664.322 34.5693 664.175 34.8553 664.175 35.222C664.175 35.6327 664.38 35.948 664.791 36.168C665.202 36.3733 665.84 36.586 666.705 36.806C667.585 37.026 668.311 37.2533 668.883 37.488C669.455 37.7227 669.946 38.0893 670.357 38.588C670.782 39.072 671.002 39.7173 671.017 40.524C671.017 41.228 670.819 41.8587 670.423 42.416C670.042 42.9733 669.484 43.4133 668.751 43.736C668.032 44.044 667.189 44.198 666.221 44.198ZM676.625 33.572C677.021 33.0147 677.564 32.5527 678.253 32.186C678.957 31.8047 679.757 31.614 680.651 31.614C681.693 31.614 682.631 31.8707 683.467 32.384C684.318 32.8973 684.985 33.6307 685.469 34.584C685.968 35.5227 686.217 36.6153 686.217 37.862C686.217 39.1087 685.968 40.216 685.469 41.184C684.985 42.1373 684.318 42.878 683.467 43.406C682.631 43.934 681.693 44.198 680.651 44.198C679.757 44.198 678.965 44.0147 678.275 43.648C677.601 43.2813 677.051 42.8193 676.625 42.262V49.808H673.545V31.812H676.625V33.572ZM683.071 37.862C683.071 37.1287 682.917 36.498 682.609 35.97C682.316 35.4273 681.92 35.0167 681.421 34.738C680.937 34.4593 680.409 34.32 679.837 34.32C679.28 34.32 678.752 34.4667 678.253 34.76C677.769 35.0387 677.373 35.4493 677.065 35.992C676.772 36.5347 676.625 37.1727 676.625 37.906C676.625 38.6393 676.772 39.2773 677.065 39.82C677.373 40.3627 677.769 40.7807 678.253 41.074C678.752 41.3527 679.28 41.492 679.837 41.492C680.409 41.492 680.937 41.3453 681.421 41.052C681.92 40.7587 682.316 40.3407 682.609 39.798C682.917 39.2553 683.071 38.61 683.071 37.862ZM693.868 44.198C692.694 44.198 691.638 43.9413 690.7 43.428C689.761 42.9 689.02 42.1593 688.478 41.206C687.95 40.2527 687.686 39.1527 687.686 37.906C687.686 36.6593 687.957 35.5593 688.5 34.606C689.057 33.6527 689.812 32.9193 690.766 32.406C691.719 31.878 692.782 31.614 693.956 31.614C695.129 31.614 696.192 31.878 697.146 32.406C698.099 32.9193 698.847 33.6527 699.39 34.606C699.947 35.5593 700.226 36.6593 700.226 37.906C700.226 39.1527 699.94 40.2527 699.367 41.206C698.81 42.1593 698.048 42.9 697.08 43.428C696.126 43.9413 695.056 44.198 693.868 44.198ZM693.868 41.514C694.425 41.514 694.946 41.382 695.43 41.118C695.928 40.8393 696.324 40.4287 696.618 39.886C696.911 39.3433 697.058 38.6833 697.058 37.906C697.058 36.7473 696.75 35.86 696.134 35.244C695.532 34.6133 694.792 34.298 693.912 34.298C693.032 34.298 692.291 34.6133 691.69 35.244C691.103 35.86 690.81 36.7473 690.81 37.906C690.81 39.0647 691.096 39.9593 691.668 40.59C692.254 41.206 692.988 41.514 693.868 41.514ZM705.565 33.704C705.961 33.0587 706.474 32.5527 707.105 32.186C707.75 31.8193 708.483 31.636 709.305 31.636V34.87H708.491C707.523 34.87 706.789 35.0973 706.291 35.552C705.807 36.0067 705.565 36.7987 705.565 37.928V44H702.485V31.812H705.565V33.704ZM714.965 34.342V40.238C714.965 40.6487 715.061 40.9493 715.251 41.14C715.457 41.316 715.794 41.404 716.263 41.404H717.693V44H715.757C713.161 44 711.863 42.7387 711.863 40.216V34.342H710.411V31.812H711.863V28.798H714.965V31.812H717.693V34.342H714.965ZM719.117 37.862C719.117 36.63 719.359 35.5373 719.843 34.584C720.341 33.6307 721.009 32.8973 721.845 32.384C722.695 31.8707 723.641 31.614 724.683 31.614C725.592 31.614 726.384 31.7973 727.059 32.164C727.748 32.5307 728.298 32.9927 728.709 33.55V31.812H731.811V44H728.709V42.218C728.313 42.79 727.763 43.2667 727.059 43.648C726.369 44.0147 725.57 44.198 724.661 44.198C723.634 44.198 722.695 43.934 721.845 43.406C721.009 42.878 720.341 42.1373 719.843 41.184C719.359 40.216 719.117 39.1087 719.117 37.862ZM728.709 37.906C728.709 37.158 728.562 36.52 728.269 35.992C727.975 35.4493 727.579 35.0387 727.081 34.76C726.582 34.4667 726.047 34.32 725.475 34.32C724.903 34.32 724.375 34.4593 723.891 34.738C723.407 35.0167 723.011 35.4273 722.703 35.97C722.409 36.498 722.263 37.1287 722.263 37.862C722.263 38.5953 722.409 39.2407 722.703 39.798C723.011 40.3407 723.407 40.7587 723.891 41.052C724.389 41.3453 724.917 41.492 725.475 41.492C726.047 41.492 726.582 41.3527 727.081 41.074C727.579 40.7807 727.975 40.37 728.269 39.842C728.562 39.2993 728.709 38.654 728.709 37.906ZM738.405 34.342V40.238C738.405 40.6487 738.5 40.9493 738.691 41.14C738.896 41.316 739.233 41.404 739.703 41.404H741.133V44H739.197C736.601 44 735.303 42.7387 735.303 40.216V34.342H733.851V31.812H735.303V28.798H738.405V31.812H741.133V34.342H738.405ZM744.91 30.36C744.367 30.36 743.913 30.1913 743.546 29.854C743.194 29.502 743.018 29.0693 743.018 28.556C743.018 28.0427 743.194 27.6173 743.546 27.28C743.913 26.928 744.367 26.752 744.91 26.752C745.453 26.752 745.9 26.928 746.252 27.28C746.619 27.6173 746.802 28.0427 746.802 28.556C746.802 29.0693 746.619 29.502 746.252 29.854C745.9 30.1913 745.453 30.36 744.91 30.36ZM746.428 31.812V44H743.348V31.812H746.428ZM754.883 44.198C753.71 44.198 752.654 43.9413 751.715 43.428C750.776 42.9 750.036 42.1593 749.493 41.206C748.965 40.2527 748.701 39.1527 748.701 37.906C748.701 36.6593 748.972 35.5593 749.515 34.606C750.072 33.6527 750.828 32.9193 751.781 32.406C752.734 31.878 753.798 31.614 754.971 31.614C756.144 31.614 757.208 31.878 758.161 32.406C759.114 32.9193 759.862 33.6527 760.405 34.606C760.962 35.5593 761.241 36.6593 761.241 37.906C761.241 39.1527 760.955 40.2527 760.383 41.206C759.826 42.1593 759.063 42.9 758.095 43.428C757.142 43.9413 756.071 44.198 754.883 44.198ZM754.883 41.514C755.44 41.514 755.961 41.382 756.445 41.118C756.944 40.8393 757.34 40.4287 757.633 39.886C757.926 39.3433 758.073 38.6833 758.073 37.906C758.073 36.7473 757.765 35.86 757.149 35.244C756.548 34.6133 755.807 34.298 754.927 34.298C754.047 34.298 753.306 34.6133 752.705 35.244C752.118 35.86 751.825 36.7473 751.825 37.906C751.825 39.0647 752.111 39.9593 752.683 40.59C753.27 41.206 754.003 41.514 754.883 41.514ZM770.254 31.636C771.706 31.636 772.88 32.098 773.774 33.022C774.669 33.9313 775.116 35.2073 775.116 36.85V44H772.036V37.268C772.036 36.3 771.794 35.5593 771.31 35.046C770.826 34.518 770.166 34.254 769.33 34.254C768.48 34.254 767.805 34.518 767.306 35.046C766.822 35.5593 766.58 36.3 766.58 37.268V44H763.5V31.812H766.58V33.33C766.991 32.802 767.512 32.3913 768.142 32.098C768.788 31.79 769.492 31.636 770.254 31.636ZM493.26 61.644V77H490.18V67.012L486.066 77H483.734L479.598 67.012V77H476.518V61.644H480.016L484.9 73.062L489.784 61.644H493.26ZM495.513 70.862C495.513 69.63 495.755 68.5373 496.239 67.584C496.738 66.6307 497.405 65.8973 498.241 65.384C499.092 64.8707 500.038 64.614 501.079 64.614C501.988 64.614 502.78 64.7973 503.455 65.164C504.144 65.5307 504.694 65.9927 505.105 66.55V64.812H508.207V77H505.105V75.218C504.709 75.79 504.159 76.2667 503.455 76.648C502.766 77.0147 501.966 77.198 501.057 77.198C500.03 77.198 499.092 76.934 498.241 76.406C497.405 75.878 496.738 75.1373 496.239 74.184C495.755 73.216 495.513 72.1087 495.513 70.862ZM505.105 70.906C505.105 70.158 504.958 69.52 504.665 68.992C504.372 68.4493 503.976 68.0387 503.477 67.76C502.978 67.4667 502.443 67.32 501.871 67.32C501.299 67.32 500.771 67.4593 500.287 67.738C499.803 68.0167 499.407 68.4273 499.099 68.97C498.806 69.498 498.659 70.1287 498.659 70.862C498.659 71.5953 498.806 72.2407 499.099 72.798C499.407 73.3407 499.803 73.7587 500.287 74.052C500.786 74.3453 501.314 74.492 501.871 74.492C502.443 74.492 502.978 74.3527 503.477 74.074C503.976 73.7807 504.372 73.37 504.665 72.842C504.958 72.2993 505.105 71.654 505.105 70.906ZM517.969 64.636C519.421 64.636 520.595 65.098 521.489 66.022C522.384 66.9313 522.831 68.2073 522.831 69.85V77H519.751V70.268C519.751 69.3 519.509 68.5593 519.025 68.046C518.541 67.518 517.881 67.254 517.045 67.254C516.195 67.254 515.52 67.518 515.021 68.046C514.537 68.5593 514.295 69.3 514.295 70.268V77H511.215V64.812H514.295V66.33C514.706 65.802 515.227 65.3913 515.857 65.098C516.503 64.79 517.207 64.636 517.969 64.636ZM524.968 70.862C524.968 69.63 525.21 68.5373 525.694 67.584C526.193 66.6307 526.86 65.8973 527.696 65.384C528.547 64.8707 529.493 64.614 530.534 64.614C531.444 64.614 532.236 64.7973 532.91 65.164C533.6 65.5307 534.15 65.9927 534.56 66.55V64.812H537.662V77H534.56V75.218C534.164 75.79 533.614 76.2667 532.91 76.648C532.221 77.0147 531.422 77.198 530.512 77.198C529.486 77.198 528.547 76.934 527.696 76.406C526.86 75.878 526.193 75.1373 525.694 74.184C525.21 73.216 524.968 72.1087 524.968 70.862ZM534.56 70.906C534.56 70.158 534.414 69.52 534.12 68.992C533.827 68.4493 533.431 68.0387 532.932 67.76C532.434 67.4667 531.898 67.32 531.326 67.32C530.754 67.32 530.226 67.4593 529.742 67.738C529.258 68.0167 528.862 68.4273 528.554 68.97C528.261 69.498 528.114 70.1287 528.114 70.862C528.114 71.5953 528.261 72.2407 528.554 72.798C528.862 73.3407 529.258 73.7587 529.742 74.052C530.241 74.3453 530.769 74.492 531.326 74.492C531.898 74.492 532.434 74.3527 532.932 74.074C533.431 73.7807 533.827 73.37 534.12 72.842C534.414 72.2993 534.56 71.654 534.56 70.906ZM545.444 64.614C546.354 64.614 547.153 64.7973 547.842 65.164C548.532 65.516 549.074 65.978 549.47 66.55V64.812H552.572V77.088C552.572 78.2173 552.345 79.222 551.89 80.102C551.436 80.9967 550.754 81.7007 549.844 82.214C548.935 82.742 547.835 83.006 546.544 83.006C544.814 83.006 543.391 82.6027 542.276 81.796C541.176 80.9893 540.553 79.8893 540.406 78.496H543.464C543.626 79.0533 543.97 79.4933 544.498 79.816C545.041 80.1533 545.694 80.322 546.456 80.322C547.351 80.322 548.077 80.0507 548.634 79.508C549.192 78.98 549.47 78.1733 549.47 77.088V75.196C549.074 75.768 548.524 76.2447 547.82 76.626C547.131 77.0073 546.339 77.198 545.444 77.198C544.418 77.198 543.479 76.934 542.628 76.406C541.778 75.878 541.103 75.1373 540.604 74.184C540.12 73.216 539.878 72.1087 539.878 70.862C539.878 69.63 540.12 68.5373 540.604 67.584C541.103 66.6307 541.77 65.8973 542.606 65.384C543.457 64.8707 544.403 64.614 545.444 64.614ZM549.47 70.906C549.47 70.158 549.324 69.52 549.03 68.992C548.737 68.4493 548.341 68.0387 547.842 67.76C547.344 67.4667 546.808 67.32 546.236 67.32C545.664 67.32 545.136 67.4593 544.652 67.738C544.168 68.0167 543.772 68.4273 543.464 68.97C543.171 69.498 543.024 70.1287 543.024 70.862C543.024 71.5953 543.171 72.2407 543.464 72.798C543.772 73.3407 544.168 73.7587 544.652 74.052C545.151 74.3453 545.679 74.492 546.236 74.492C546.808 74.492 547.344 74.3527 547.842 74.074C548.341 73.7807 548.737 73.37 549.03 72.842C549.324 72.2993 549.47 71.654 549.47 70.906ZM566.911 70.642C566.911 71.082 566.881 71.478 566.823 71.83H557.913C557.986 72.71 558.294 73.3993 558.837 73.898C559.379 74.3967 560.047 74.646 560.839 74.646C561.983 74.646 562.797 74.1547 563.281 73.172H566.603C566.251 74.3453 565.576 75.3133 564.579 76.076C563.581 76.824 562.357 77.198 560.905 77.198C559.731 77.198 558.675 76.9413 557.737 76.428C556.813 75.9 556.087 75.1593 555.559 74.206C555.045 73.2527 554.788 72.1527 554.788 70.906C554.788 69.6447 555.045 68.5373 555.559 67.584C556.072 66.6307 556.791 65.8973 557.715 65.384C558.639 64.8707 559.702 64.614 560.905 64.614C562.063 64.614 563.097 64.8633 564.007 65.362C564.931 65.8607 565.642 66.572 566.141 67.496C566.654 68.4053 566.911 69.454 566.911 70.642ZM563.721 69.762C563.706 68.97 563.42 68.3393 562.863 67.87C562.305 67.386 561.623 67.144 560.817 67.144C560.054 67.144 559.409 67.3787 558.881 67.848C558.367 68.3027 558.052 68.9407 557.935 69.762H563.721ZM584.295 64.636C585.791 64.636 586.993 65.098 587.903 66.022C588.827 66.9313 589.289 68.2073 589.289 69.85V77H586.209V70.268C586.209 69.3147 585.967 68.5887 585.483 68.09C584.999 67.5767 584.339 67.32 583.503 67.32C582.667 67.32 581.999 67.5767 581.501 68.09C581.017 68.5887 580.775 69.3147 580.775 70.268V77H577.695V70.268C577.695 69.3147 577.453 68.5887 576.969 68.09C576.485 67.5767 575.825 67.32 574.989 67.32C574.138 67.32 573.463 67.5767 572.965 68.09C572.481 68.5887 572.239 69.3147 572.239 70.268V77H569.159V64.812H572.239V66.286C572.635 65.7727 573.141 65.3693 573.757 65.076C574.387 64.7827 575.077 64.636 575.825 64.636C576.778 64.636 577.629 64.8413 578.377 65.252C579.125 65.648 579.704 66.22 580.115 66.968C580.511 66.264 581.083 65.6993 581.831 65.274C582.593 64.8487 583.415 64.636 584.295 64.636ZM603.541 70.642C603.541 71.082 603.512 71.478 603.453 71.83H594.543C594.617 72.71 594.925 73.3993 595.467 73.898C596.01 74.3967 596.677 74.646 597.469 74.646C598.613 74.646 599.427 74.1547 599.911 73.172H603.233C602.881 74.3453 602.207 75.3133 601.209 76.076C600.212 76.824 598.987 77.198 597.535 77.198C596.362 77.198 595.306 76.9413 594.367 76.428C593.443 75.9 592.717 75.1593 592.189 74.206C591.676 73.2527 591.419 72.1527 591.419 70.906C591.419 69.6447 591.676 68.5373 592.189 67.584C592.703 66.6307 593.421 65.8973 594.345 65.384C595.269 64.8707 596.333 64.614 597.535 64.614C598.694 64.614 599.728 64.8633 600.637 65.362C601.561 65.8607 602.273 66.572 602.771 67.496C603.285 68.4053 603.541 69.454 603.541 70.642ZM600.351 69.762C600.337 68.97 600.051 68.3393 599.493 67.87C598.936 67.386 598.254 67.144 597.447 67.144C596.685 67.144 596.039 67.3787 595.511 67.848C594.998 68.3027 594.683 68.9407 594.565 69.762H600.351ZM612.543 64.636C613.995 64.636 615.169 65.098 616.063 66.022C616.958 66.9313 617.405 68.2073 617.405 69.85V77H614.325V70.268C614.325 69.3 614.083 68.5593 613.599 68.046C613.115 67.518 612.455 67.254 611.619 67.254C610.769 67.254 610.094 67.518 609.595 68.046C609.111 68.5593 608.869 69.3 608.869 70.268V77H605.789V64.812H608.869V66.33C609.28 65.802 609.801 65.3913 610.431 65.098C611.077 64.79 611.781 64.636 612.543 64.636ZM623.92 67.342V73.238C623.92 73.6487 624.016 73.9493 624.206 74.14C624.412 74.316 624.749 74.404 625.218 74.404H626.648V77H624.712C622.116 77 620.818 75.7387 620.818 73.216V67.342H619.366V64.812H620.818V61.798H623.92V64.812H626.648V67.342H623.92ZM639.408 77.154C638.337 77.154 637.369 76.9707 636.504 76.604C635.653 76.2373 634.979 75.7093 634.48 75.02C633.981 74.3307 633.725 73.5167 633.71 72.578H637.01C637.054 73.2087 637.274 73.7073 637.67 74.074C638.081 74.4407 638.638 74.624 639.342 74.624C640.061 74.624 640.625 74.4553 641.036 74.118C641.447 73.766 641.652 73.3113 641.652 72.754C641.652 72.2993 641.513 71.9253 641.234 71.632C640.955 71.3387 640.603 71.1113 640.178 70.95C639.767 70.774 639.195 70.5833 638.462 70.378C637.465 70.0847 636.651 69.7987 636.02 69.52C635.404 69.2267 634.869 68.794 634.414 68.222C633.974 67.6353 633.754 66.858 633.754 65.89C633.754 64.9807 633.981 64.1887 634.436 63.514C634.891 62.8393 635.529 62.326 636.35 61.974C637.171 61.6073 638.11 61.424 639.166 61.424C640.75 61.424 642.033 61.8127 643.016 62.59C644.013 63.3527 644.563 64.4233 644.666 65.802H641.278C641.249 65.274 641.021 64.8413 640.596 64.504C640.185 64.152 639.635 63.976 638.946 63.976C638.345 63.976 637.861 64.13 637.494 64.438C637.142 64.746 636.966 65.1933 636.966 65.78C636.966 66.1907 637.098 66.5353 637.362 66.814C637.641 67.078 637.978 67.298 638.374 67.474C638.785 67.6353 639.357 67.826 640.09 68.046C641.087 68.3393 641.901 68.6327 642.532 68.926C643.163 69.2193 643.705 69.6593 644.16 70.246C644.615 70.8327 644.842 71.6027 644.842 72.556C644.842 73.3773 644.629 74.14 644.204 74.844C643.779 75.548 643.155 76.1127 642.334 76.538C641.513 76.9487 640.537 77.154 639.408 77.154ZM659.172 64.812L651.626 82.764H648.348L650.988 76.692L646.104 64.812H649.558L652.704 73.326L655.894 64.812H659.172ZM665.496 77.198C664.499 77.198 663.604 77.022 662.812 76.67C662.02 76.3033 661.39 75.812 660.92 75.196C660.466 74.58 660.216 73.898 660.172 73.15H663.274C663.333 73.6193 663.56 74.008 663.956 74.316C664.367 74.624 664.873 74.778 665.474 74.778C666.061 74.778 666.516 74.6607 666.838 74.426C667.176 74.1913 667.344 73.8907 667.344 73.524C667.344 73.128 667.139 72.8347 666.728 72.644C666.332 72.4387 665.694 72.2187 664.814 71.984C663.905 71.764 663.157 71.5367 662.57 71.302C661.998 71.0673 661.5 70.708 661.074 70.224C660.664 69.74 660.458 69.0873 660.458 68.266C660.458 67.5913 660.649 66.9753 661.03 66.418C661.426 65.8607 661.984 65.4207 662.702 65.098C663.436 64.7753 664.294 64.614 665.276 64.614C666.728 64.614 667.887 64.9807 668.752 65.714C669.618 66.4327 670.094 67.408 670.182 68.64H667.234C667.19 68.156 666.985 67.7747 666.618 67.496C666.266 67.2027 665.79 67.056 665.188 67.056C664.631 67.056 664.198 67.1587 663.89 67.364C663.597 67.5693 663.45 67.8553 663.45 68.222C663.45 68.6327 663.656 68.948 664.066 69.168C664.477 69.3733 665.115 69.586 665.98 69.806C666.86 70.026 667.586 70.2533 668.158 70.488C668.73 70.7227 669.222 71.0893 669.632 71.588C670.058 72.072 670.278 72.7173 670.292 73.524C670.292 74.228 670.094 74.8587 669.698 75.416C669.317 75.9733 668.76 76.4133 668.026 76.736C667.308 77.044 666.464 77.198 665.496 77.198ZM676.407 67.342V73.238C676.407 73.6487 676.502 73.9493 676.693 74.14C676.898 74.316 677.235 74.404 677.705 74.404H679.135V77H677.199C674.603 77 673.305 75.7387 673.305 73.216V67.342H671.853V64.812H673.305V61.798H676.407V64.812H679.135V67.342H676.407ZM692.68 70.642C692.68 71.082 692.651 71.478 692.592 71.83H683.682C683.755 72.71 684.063 73.3993 684.606 73.898C685.149 74.3967 685.816 74.646 686.608 74.646C687.752 74.646 688.566 74.1547 689.05 73.172H692.372C692.02 74.3453 691.345 75.3133 690.348 76.076C689.351 76.824 688.126 77.198 686.674 77.198C685.501 77.198 684.445 76.9413 683.506 76.428C682.582 75.9 681.856 75.1593 681.328 74.206C680.815 73.2527 680.558 72.1527 680.558 70.906C680.558 69.6447 680.815 68.5373 681.328 67.584C681.841 66.6307 682.56 65.8973 683.484 65.384C684.408 64.8707 685.471 64.614 686.674 64.614C687.833 64.614 688.867 64.8633 689.776 65.362C690.7 65.8607 691.411 66.572 691.91 67.496C692.423 68.4053 692.68 69.454 692.68 70.642ZM689.49 69.762C689.475 68.97 689.189 68.3393 688.632 67.87C688.075 67.386 687.393 67.144 686.586 67.144C685.823 67.144 685.178 67.3787 684.65 67.848C684.137 68.3027 683.821 68.9407 683.704 69.762H689.49ZM710.064 64.636C711.56 64.636 712.763 65.098 713.672 66.022C714.596 66.9313 715.058 68.2073 715.058 69.85V77H711.978V70.268C711.978 69.3147 711.736 68.5887 711.252 68.09C710.768 67.5767 710.108 67.32 709.272 67.32C708.436 67.32 707.769 67.5767 707.27 68.09C706.786 68.5887 706.544 69.3147 706.544 70.268V77H703.464V70.268C703.464 69.3147 703.222 68.5887 702.738 68.09C702.254 67.5767 701.594 67.32 700.758 67.32C699.907 67.32 699.233 67.5767 698.734 68.09C698.25 68.5887 698.008 69.3147 698.008 70.268V77H694.928V64.812H698.008V66.286C698.404 65.7727 698.91 65.3693 699.526 65.076C700.157 64.7827 700.846 64.636 701.594 64.636C702.547 64.636 703.398 64.8413 704.146 65.252C704.894 65.648 705.473 66.22 705.884 66.968C706.28 66.264 706.852 65.6993 707.6 65.274C708.363 64.8487 709.184 64.636 710.064 64.636ZM722.645 77.198C721.648 77.198 720.753 77.022 719.961 76.67C719.169 76.3033 718.538 75.812 718.069 75.196C717.614 74.58 717.365 73.898 717.321 73.15H720.423C720.482 73.6193 720.709 74.008 721.105 74.316C721.516 74.624 722.022 74.778 722.623 74.778C723.21 74.778 723.664 74.6607 723.987 74.426C724.324 74.1913 724.493 73.8907 724.493 73.524C724.493 73.128 724.288 72.8347 723.877 72.644C723.481 72.4387 722.843 72.2187 721.963 71.984C721.054 71.764 720.306 71.5367 719.719 71.302C719.147 71.0673 718.648 70.708 718.223 70.224C717.812 69.74 717.607 69.0873 717.607 68.266C717.607 67.5913 717.798 66.9753 718.179 66.418C718.575 65.8607 719.132 65.4207 719.851 65.098C720.584 64.7753 721.442 64.614 722.425 64.614C723.877 64.614 725.036 64.9807 725.901 65.714C726.766 66.4327 727.243 67.408 727.331 68.64H724.383C724.339 68.156 724.134 67.7747 723.767 67.496C723.415 67.2027 722.938 67.056 722.337 67.056C721.78 67.056 721.347 67.1587 721.039 67.364C720.746 67.5693 720.599 67.8553 720.599 68.222C720.599 68.6327 720.804 68.948 721.215 69.168C721.626 69.3733 722.264 69.586 723.129 69.806C724.009 70.026 724.735 70.2533 725.307 70.488C725.879 70.7227 726.37 71.0893 726.781 71.588C727.206 72.072 727.426 72.7173 727.441 73.524C727.441 74.228 727.243 74.8587 726.847 75.416C726.466 75.9733 725.908 76.4133 725.175 76.736C724.456 77.044 723.613 77.198 722.645 77.198Z" fill="#042F7C"/>
<path d="M828.32 29.92C828.32 27.1467 828.92 24.68 830.12 22.52C831.32 20.3333 832.987 18.64 835.12 17.44C837.28 16.2133 839.72 15.6 842.44 15.6C845.773 15.6 848.627 16.48 851 18.24C853.373 20 854.96 22.4 855.76 25.44H848.24C847.68 24.2667 846.88 23.3733 845.84 22.76C844.827 22.1467 843.667 21.84 842.36 21.84C840.253 21.84 838.547 22.5733 837.24 24.04C835.933 25.5067 835.28 27.4667 835.28 29.92C835.28 32.3733 835.933 34.3333 837.24 35.8C838.547 37.2667 840.253 38 842.36 38C843.667 38 844.827 37.6933 845.84 37.08C846.88 36.4667 847.68 35.5733 848.24 34.4H855.76C854.96 37.44 853.373 39.84 851 41.6C848.627 43.3333 845.773 44.2 842.44 44.2C839.72 44.2 837.28 43.6 835.12 42.4C832.987 41.1733 831.32 39.48 830.12 37.32C828.92 35.16 828.32 32.6933 828.32 29.92ZM870.493 31.812V44H867.391V42.46C866.995 42.988 866.474 43.406 865.829 43.714C865.198 44.0073 864.509 44.154 863.761 44.154C862.807 44.154 861.964 43.956 861.231 43.56C860.497 43.1493 859.918 42.5553 859.493 41.778C859.082 40.986 858.877 40.0473 858.877 38.962V31.812H861.957V38.522C861.957 39.49 862.199 40.238 862.683 40.766C863.167 41.2793 863.827 41.536 864.663 41.536C865.513 41.536 866.181 41.2793 866.665 40.766C867.149 40.238 867.391 39.49 867.391 38.522V31.812H870.493ZM878.196 44.198C877.198 44.198 876.304 44.022 875.512 43.67C874.72 43.3033 874.089 42.812 873.62 42.196C873.165 41.58 872.916 40.898 872.872 40.15H875.974C876.032 40.6193 876.26 41.008 876.656 41.316C877.066 41.624 877.572 41.778 878.174 41.778C878.76 41.778 879.215 41.6607 879.538 41.426C879.875 41.1913 880.044 40.8907 880.044 40.524C880.044 40.128 879.838 39.8347 879.428 39.644C879.032 39.4387 878.394 39.2187 877.514 38.984C876.604 38.764 875.856 38.5367 875.27 38.302C874.698 38.0673 874.199 37.708 873.774 37.224C873.363 36.74 873.158 36.0873 873.158 35.266C873.158 34.5913 873.348 33.9753 873.73 33.418C874.126 32.8607 874.683 32.4207 875.402 32.098C876.135 31.7753 876.993 31.614 877.976 31.614C879.428 31.614 880.586 31.9807 881.452 32.714C882.317 33.4327 882.794 34.408 882.882 35.64H879.934C879.89 35.156 879.684 34.7747 879.318 34.496C878.966 34.2027 878.489 34.056 877.888 34.056C877.33 34.056 876.898 34.1587 876.59 34.364C876.296 34.5693 876.15 34.8553 876.15 35.222C876.15 35.6327 876.355 35.948 876.766 36.168C877.176 36.3733 877.814 36.586 878.68 36.806C879.56 37.026 880.286 37.2533 880.858 37.488C881.43 37.7227 881.921 38.0893 882.332 38.588C882.757 39.072 882.977 39.7173 882.992 40.524C882.992 41.228 882.794 41.8587 882.398 42.416C882.016 42.9733 881.459 43.4133 880.726 43.736C880.007 44.044 879.164 44.198 878.196 44.198ZM889.106 34.342V40.238C889.106 40.6487 889.201 40.9493 889.392 41.14C889.597 41.316 889.935 41.404 890.404 41.404H891.834V44H889.898C887.302 44 886.004 42.7387 886.004 40.216V34.342H884.552V31.812H886.004V28.798H889.106V31.812H891.834V34.342H889.106ZM899.461 44.198C898.288 44.198 897.232 43.9413 896.293 43.428C895.355 42.9 894.614 42.1593 894.071 41.206C893.543 40.2527 893.279 39.1527 893.279 37.906C893.279 36.6593 893.551 35.5593 894.093 34.606C894.651 33.6527 895.406 32.9193 896.359 32.406C897.313 31.878 898.376 31.614 899.549 31.614C900.723 31.614 901.786 31.878 902.739 32.406C903.693 32.9193 904.441 33.6527 904.983 34.606C905.541 35.5593 905.819 36.6593 905.819 37.906C905.819 39.1527 905.533 40.2527 904.961 41.206C904.404 42.1593 903.641 42.9 902.673 43.428C901.72 43.9413 900.649 44.198 899.461 44.198ZM899.461 41.514C900.019 41.514 900.539 41.382 901.023 41.118C901.522 40.8393 901.918 40.4287 902.211 39.886C902.505 39.3433 902.651 38.6833 902.651 37.906C902.651 36.7473 902.343 35.86 901.727 35.244C901.126 34.6133 900.385 34.298 899.505 34.298C898.625 34.298 897.885 34.6133 897.283 35.244C896.697 35.86 896.403 36.7473 896.403 37.906C896.403 39.0647 896.689 39.9593 897.261 40.59C897.848 41.206 898.581 41.514 899.461 41.514ZM923.215 31.636C924.711 31.636 925.913 32.098 926.823 33.022C927.747 33.9313 928.209 35.2073 928.209 36.85V44H925.129V37.268C925.129 36.3147 924.887 35.5887 924.403 35.09C923.919 34.5767 923.259 34.32 922.423 34.32C921.587 34.32 920.919 34.5767 920.421 35.09C919.937 35.5887 919.695 36.3147 919.695 37.268V44H916.615V37.268C916.615 36.3147 916.373 35.5887 915.889 35.09C915.405 34.5767 914.745 34.32 913.909 34.32C913.058 34.32 912.383 34.5767 911.885 35.09C911.401 35.5887 911.159 36.3147 911.159 37.268V44H908.079V31.812H911.159V33.286C911.555 32.7727 912.061 32.3693 912.677 32.076C913.307 31.7827 913.997 31.636 914.745 31.636C915.698 31.636 916.549 31.8413 917.297 32.252C918.045 32.648 918.624 33.22 919.035 33.968C919.431 33.264 920.003 32.6993 920.751 32.274C921.513 31.8487 922.335 31.636 923.215 31.636ZM932.693 30.36C932.151 30.36 931.696 30.1913 931.329 29.854C930.977 29.502 930.801 29.0693 930.801 28.556C930.801 28.0427 930.977 27.6173 931.329 27.28C931.696 26.928 932.151 26.752 932.693 26.752C933.236 26.752 933.683 26.928 934.035 27.28C934.402 27.6173 934.585 28.0427 934.585 28.556C934.585 29.0693 934.402 29.502 934.035 29.854C933.683 30.1913 933.236 30.36 932.693 30.36ZM934.211 31.812V44H931.131V31.812H934.211ZM941.918 44.198C940.921 44.198 940.026 44.022 939.234 43.67C938.442 43.3033 937.812 42.812 937.342 42.196C936.888 41.58 936.638 40.898 936.594 40.15H939.696C939.755 40.6193 939.982 41.008 940.378 41.316C940.789 41.624 941.295 41.778 941.896 41.778C942.483 41.778 942.938 41.6607 943.26 41.426C943.598 41.1913 943.766 40.8907 943.766 40.524C943.766 40.128 943.561 39.8347 943.15 39.644C942.754 39.4387 942.116 39.2187 941.236 38.984C940.327 38.764 939.579 38.5367 938.992 38.302C938.42 38.0673 937.922 37.708 937.496 37.224C937.086 36.74 936.88 36.0873 936.88 35.266C936.88 34.5913 937.071 33.9753 937.452 33.418C937.848 32.8607 938.406 32.4207 939.124 32.098C939.858 31.7753 940.716 31.614 941.698 31.614C943.15 31.614 944.309 31.9807 945.174 32.714C946.04 33.4327 946.516 34.408 946.604 35.64H943.656C943.612 35.156 943.407 34.7747 943.04 34.496C942.688 34.2027 942.212 34.056 941.61 34.056C941.053 34.056 940.62 34.1587 940.312 34.364C940.019 34.5693 939.872 34.8553 939.872 35.222C939.872 35.6327 940.078 35.948 940.488 36.168C940.899 36.3733 941.537 36.586 942.402 36.806C943.282 37.026 944.008 37.2533 944.58 37.488C945.152 37.7227 945.644 38.0893 946.054 38.588C946.48 39.072 946.7 39.7173 946.714 40.524C946.714 41.228 946.516 41.8587 946.12 42.416C945.739 42.9733 945.182 43.4133 944.448 43.736C943.73 44.044 942.886 44.198 941.918 44.198ZM948.451 37.862C948.451 36.63 948.693 35.5373 949.177 34.584C949.675 33.6307 950.343 32.8973 951.179 32.384C952.029 31.8707 952.975 31.614 954.017 31.614C954.926 31.614 955.718 31.7973 956.393 32.164C957.082 32.5307 957.632 32.9927 958.043 33.55V31.812H961.145V44H958.043V42.218C957.647 42.79 957.097 43.2667 956.393 43.648C955.703 44.0147 954.904 44.198 953.995 44.198C952.968 44.198 952.029 43.934 951.179 43.406C950.343 42.878 949.675 42.1373 949.177 41.184C948.693 40.216 948.451 39.1087 948.451 37.862ZM958.043 37.906C958.043 37.158 957.896 36.52 957.603 35.992C957.309 35.4493 956.913 35.0387 956.415 34.76C955.916 34.4667 955.381 34.32 954.809 34.32C954.237 34.32 953.709 34.4593 953.225 34.738C952.741 35.0167 952.345 35.4273 952.037 35.97C951.743 36.498 951.597 37.1287 951.597 37.862C951.597 38.5953 951.743 39.2407 952.037 39.798C952.345 40.3407 952.741 40.7587 953.225 41.052C953.723 41.3453 954.251 41.492 954.809 41.492C955.381 41.492 955.916 41.3527 956.415 41.074C956.913 40.7807 957.309 40.37 957.603 39.842C957.896 39.2993 958.043 38.654 958.043 37.906ZM967.739 34.342V40.238C967.739 40.6487 967.834 40.9493 968.025 41.14C968.23 41.316 968.567 41.404 969.037 41.404H970.467V44H968.531C965.935 44 964.637 42.7387 964.637 40.216V34.342H963.185V31.812H964.637V28.798H967.739V31.812H970.467V34.342H967.739ZM974.244 30.36C973.701 30.36 973.247 30.1913 972.88 29.854C972.528 29.502 972.352 29.0693 972.352 28.556C972.352 28.0427 972.528 27.6173 972.88 27.28C973.247 26.928 973.701 26.752 974.244 26.752C974.787 26.752 975.234 26.928 975.586 27.28C975.953 27.6173 976.136 28.0427 976.136 28.556C976.136 29.0693 975.953 29.502 975.586 29.854C975.234 30.1913 974.787 30.36 974.244 30.36ZM975.762 31.812V44H972.682V31.812H975.762ZM984.217 44.198C983.044 44.198 981.988 43.9413 981.049 43.428C980.11 42.9 979.37 42.1593 978.827 41.206C978.299 40.2527 978.035 39.1527 978.035 37.906C978.035 36.6593 978.306 35.5593 978.849 34.606C979.406 33.6527 980.162 32.9193 981.115 32.406C982.068 31.878 983.132 31.614 984.305 31.614C985.478 31.614 986.542 31.878 987.495 32.406C988.448 32.9193 989.196 33.6527 989.739 34.606C990.296 35.5593 990.575 36.6593 990.575 37.906C990.575 39.1527 990.289 40.2527 989.717 41.206C989.16 42.1593 988.397 42.9 987.429 43.428C986.476 43.9413 985.405 44.198 984.217 44.198ZM984.217 41.514C984.774 41.514 985.295 41.382 985.779 41.118C986.278 40.8393 986.674 40.4287 986.967 39.886C987.26 39.3433 987.407 38.6833 987.407 37.906C987.407 36.7473 987.099 35.86 986.483 35.244C985.882 34.6133 985.141 34.298 984.261 34.298C983.381 34.298 982.64 34.6133 982.039 35.244C981.452 35.86 981.159 36.7473 981.159 37.906C981.159 39.0647 981.445 39.9593 982.017 40.59C982.604 41.206 983.337 41.514 984.217 41.514ZM999.588 31.636C1001.04 31.636 1002.21 32.098 1003.11 33.022C1004 33.9313 1004.45 35.2073 1004.45 36.85V44H1001.37V37.268C1001.37 36.3 1001.13 35.5593 1000.64 35.046C1000.16 34.518 999.5 34.254 998.664 34.254C997.814 34.254 997.139 34.518 996.64 35.046C996.156 35.5593 995.914 36.3 995.914 37.268V44H992.834V31.812H995.914V33.33C996.325 32.802 996.846 32.3913 997.476 32.098C998.122 31.79 998.826 31.636 999.588 31.636ZM845.26 61.644V77H842.18V67.012L838.066 77H835.734L831.598 67.012V77H828.518V61.644H832.016L836.9 73.062L841.784 61.644H845.26ZM847.513 70.862C847.513 69.63 847.755 68.5373 848.239 67.584C848.738 66.6307 849.405 65.8973 850.241 65.384C851.092 64.8707 852.038 64.614 853.079 64.614C853.988 64.614 854.78 64.7973 855.455 65.164C856.144 65.5307 856.694 65.9927 857.105 66.55V64.812H860.207V77H857.105V75.218C856.709 75.79 856.159 76.2667 855.455 76.648C854.766 77.0147 853.966 77.198 853.057 77.198C852.03 77.198 851.092 76.934 850.241 76.406C849.405 75.878 848.738 75.1373 848.239 74.184C847.755 73.216 847.513 72.1087 847.513 70.862ZM857.105 70.906C857.105 70.158 856.958 69.52 856.665 68.992C856.372 68.4493 855.976 68.0387 855.477 67.76C854.978 67.4667 854.443 67.32 853.871 67.32C853.299 67.32 852.771 67.4593 852.287 67.738C851.803 68.0167 851.407 68.4273 851.099 68.97C850.806 69.498 850.659 70.1287 850.659 70.862C850.659 71.5953 850.806 72.2407 851.099 72.798C851.407 73.3407 851.803 73.7587 852.287 74.052C852.786 74.3453 853.314 74.492 853.871 74.492C854.443 74.492 854.978 74.3527 855.477 74.074C855.976 73.7807 856.372 73.37 856.665 72.842C856.958 72.2993 857.105 71.654 857.105 70.906ZM862.423 70.862C862.423 69.63 862.665 68.5373 863.149 67.584C863.648 66.6307 864.323 65.8973 865.173 65.384C866.024 64.8707 866.97 64.614 868.011 64.614C868.803 64.614 869.559 64.79 870.277 65.142C870.996 65.4793 871.568 65.934 871.993 66.506V60.72H875.117V77H871.993V75.196C871.612 75.7973 871.077 76.2813 870.387 76.648C869.698 77.0147 868.899 77.198 867.989 77.198C866.963 77.198 866.024 76.934 865.173 76.406C864.323 75.878 863.648 75.1373 863.149 74.184C862.665 73.216 862.423 72.1087 862.423 70.862ZM872.015 70.906C872.015 70.158 871.869 69.52 871.575 68.992C871.282 68.4493 870.886 68.0387 870.387 67.76C869.889 67.4667 869.353 67.32 868.781 67.32C868.209 67.32 867.681 67.4593 867.197 67.738C866.713 68.0167 866.317 68.4273 866.009 68.97C865.716 69.498 865.569 70.1287 865.569 70.862C865.569 71.5953 865.716 72.2407 866.009 72.798C866.317 73.3407 866.713 73.7587 867.197 74.052C867.696 74.3453 868.224 74.492 868.781 74.492C869.353 74.492 869.889 74.3527 870.387 74.074C870.886 73.7807 871.282 73.37 871.575 72.842C871.869 72.2993 872.015 71.654 872.015 70.906ZM889.455 70.642C889.455 71.082 889.426 71.478 889.367 71.83H880.457C880.531 72.71 880.839 73.3993 881.381 73.898C881.924 74.3967 882.591 74.646 883.383 74.646C884.527 74.646 885.341 74.1547 885.825 73.172H889.147C888.795 74.3453 888.121 75.3133 887.123 76.076C886.126 76.824 884.901 77.198 883.449 77.198C882.276 77.198 881.22 76.9413 880.281 76.428C879.357 75.9 878.631 75.1593 878.103 74.206C877.59 73.2527 877.333 72.1527 877.333 70.906C877.333 69.6447 877.59 68.5373 878.103 67.584C878.617 66.6307 879.335 65.8973 880.259 65.384C881.183 64.8707 882.247 64.614 883.449 64.614C884.608 64.614 885.642 64.8633 886.551 65.362C887.475 65.8607 888.187 66.572 888.685 67.496C889.199 68.4053 889.455 69.454 889.455 70.642ZM886.265 69.762C886.251 68.97 885.965 68.3393 885.407 67.87C884.85 67.386 884.168 67.144 883.361 67.144C882.599 67.144 881.953 67.3787 881.425 67.848C880.912 68.3027 880.597 68.9407 880.479 69.762H886.265ZM900.026 64.13V67.98H905.196V70.422H900.026V74.492H905.856V77H896.946V61.622H905.856V64.13H900.026ZM907.863 70.862C907.863 69.63 908.105 68.5373 908.589 67.584C909.087 66.6307 909.755 65.8973 910.591 65.384C911.441 64.8707 912.387 64.614 913.429 64.614C914.338 64.614 915.13 64.7973 915.805 65.164C916.494 65.5307 917.044 65.9927 917.455 66.55V64.812H920.557V77H917.455V75.218C917.059 75.79 916.509 76.2667 915.805 76.648C915.115 77.0147 914.316 77.198 913.407 77.198C912.38 77.198 911.441 76.934 910.591 76.406C909.755 75.878 909.087 75.1373 908.589 74.184C908.105 73.216 907.863 72.1087 907.863 70.862ZM917.455 70.906C917.455 70.158 917.308 69.52 917.015 68.992C916.721 68.4493 916.325 68.0387 915.827 67.76C915.328 67.4667 914.793 67.32 914.221 67.32C913.649 67.32 913.121 67.4593 912.637 67.738C912.153 68.0167 911.757 68.4273 911.449 68.97C911.155 69.498 911.009 70.1287 911.009 70.862C911.009 71.5953 911.155 72.2407 911.449 72.798C911.757 73.3407 912.153 73.7587 912.637 74.052C913.135 74.3453 913.663 74.492 914.221 74.492C914.793 74.492 915.328 74.3527 915.827 74.074C916.325 73.7807 916.721 73.37 917.015 72.842C917.308 72.2993 917.455 71.654 917.455 70.906ZM928.229 77.198C927.232 77.198 926.337 77.022 925.545 76.67C924.753 76.3033 924.122 75.812 923.653 75.196C923.198 74.58 922.949 73.898 922.905 73.15H926.007C926.066 73.6193 926.293 74.008 926.689 74.316C927.1 74.624 927.606 74.778 928.207 74.778C928.794 74.778 929.248 74.6607 929.571 74.426C929.908 74.1913 930.077 73.8907 930.077 73.524C930.077 73.128 929.872 72.8347 929.461 72.644C929.065 72.4387 928.427 72.2187 927.547 71.984C926.638 71.764 925.89 71.5367 925.303 71.302C924.731 71.0673 924.232 70.708 923.807 70.224C923.396 69.74 923.191 69.0873 923.191 68.266C923.191 67.5913 923.382 66.9753 923.763 66.418C924.159 65.8607 924.716 65.4207 925.435 65.098C926.168 64.7753 927.026 64.614 928.009 64.614C929.461 64.614 930.62 64.9807 931.485 65.714C932.35 66.4327 932.827 67.408 932.915 68.64H929.967C929.923 68.156 929.718 67.7747 929.351 67.496C928.999 67.2027 928.522 67.056 927.921 67.056C927.364 67.056 926.931 67.1587 926.623 67.364C926.33 67.5693 926.183 67.8553 926.183 68.222C926.183 68.6327 926.388 68.948 926.799 69.168C927.21 69.3733 927.848 69.586 928.713 69.806C929.593 70.026 930.319 70.2533 930.891 70.488C931.463 70.7227 931.954 71.0893 932.365 71.588C932.79 72.072 933.01 72.7173 933.025 73.524C933.025 74.228 932.827 74.8587 932.431 75.416C932.05 75.9733 931.492 76.4133 930.759 76.736C930.04 77.044 929.197 77.198 928.229 77.198ZM947.213 64.812L939.667 82.764H936.389L939.029 76.692L934.145 64.812H937.599L940.745 73.326L943.935 64.812H947.213Z" fill="#042F7C"/>
<path d="M1080.76 44L1071.32 31.6V44H1064.48V15.92H1071.32V28.24L1080.68 15.92H1088.72L1077.84 29.68L1089.12 44H1080.76ZM1098.16 31.636C1099.61 31.636 1100.79 32.098 1101.68 33.022C1102.58 33.9313 1103.02 35.2073 1103.02 36.85V44H1099.94V37.268C1099.94 36.3 1099.7 35.5593 1099.22 35.046C1098.73 34.518 1098.07 34.254 1097.24 34.254C1096.39 34.254 1095.71 34.518 1095.21 35.046C1094.73 35.5593 1094.49 36.3 1094.49 37.268V44H1091.41V31.812H1094.49V33.33C1094.9 32.802 1095.42 32.3913 1096.05 32.098C1096.7 31.79 1097.4 31.636 1098.16 31.636ZM1111.37 44.198C1110.19 44.198 1109.14 43.9413 1108.2 43.428C1107.26 42.9 1106.52 42.1593 1105.98 41.206C1105.45 40.2527 1105.18 39.1527 1105.18 37.906C1105.18 36.6593 1105.45 35.5593 1106 34.606C1106.55 33.6527 1107.31 32.9193 1108.26 32.406C1109.22 31.878 1110.28 31.614 1111.45 31.614C1112.63 31.614 1113.69 31.878 1114.64 32.406C1115.6 32.9193 1116.34 33.6527 1116.89 34.606C1117.44 35.5593 1117.72 36.6593 1117.72 37.906C1117.72 39.1527 1117.44 40.2527 1116.87 41.206C1116.31 42.1593 1115.55 42.9 1114.58 43.428C1113.62 43.9413 1112.55 44.198 1111.37 44.198ZM1111.37 41.514C1111.92 41.514 1112.44 41.382 1112.93 41.118C1113.43 40.8393 1113.82 40.4287 1114.12 39.886C1114.41 39.3433 1114.56 38.6833 1114.56 37.906C1114.56 36.7473 1114.25 35.86 1113.63 35.244C1113.03 34.6133 1112.29 34.298 1111.41 34.298C1110.53 34.298 1109.79 34.6133 1109.19 35.244C1108.6 35.86 1108.31 36.7473 1108.31 37.906C1108.31 39.0647 1108.59 39.9593 1109.17 40.59C1109.75 41.206 1110.49 41.514 1111.37 41.514ZM1136.88 31.812L1133.31 44H1129.99L1127.77 35.486L1125.55 44H1122.2L1118.62 31.812H1121.74L1123.9 41.096L1126.23 31.812H1129.49L1131.77 41.074L1133.93 31.812H1136.88ZM1141.63 27.72V44H1138.55V27.72H1141.63ZM1156 37.642C1156 38.082 1155.97 38.478 1155.91 38.83H1147C1147.07 39.71 1147.38 40.3993 1147.92 40.898C1148.47 41.3967 1149.13 41.646 1149.93 41.646C1151.07 41.646 1151.88 41.1547 1152.37 40.172H1155.69C1155.34 41.3453 1154.66 42.3133 1153.67 43.076C1152.67 43.824 1151.44 44.198 1149.99 44.198C1148.82 44.198 1147.76 43.9413 1146.82 43.428C1145.9 42.9 1145.17 42.1593 1144.65 41.206C1144.13 40.2527 1143.88 39.1527 1143.88 37.906C1143.88 36.6447 1144.13 35.5373 1144.65 34.584C1145.16 33.6307 1145.88 32.8973 1146.8 32.384C1147.73 31.8707 1148.79 31.614 1149.99 31.614C1151.15 31.614 1152.19 31.8633 1153.09 32.362C1154.02 32.8607 1154.73 33.572 1155.23 34.496C1155.74 35.4053 1156 36.454 1156 37.642ZM1152.81 36.762C1152.79 35.97 1152.51 35.3393 1151.95 34.87C1151.39 34.386 1150.71 34.144 1149.9 34.144C1149.14 34.144 1148.5 34.3787 1147.97 34.848C1147.46 35.3027 1147.14 35.9407 1147.02 36.762H1152.81ZM1157.45 37.862C1157.45 36.63 1157.7 35.5373 1158.18 34.584C1158.68 33.6307 1159.35 32.8973 1160.2 32.384C1161.06 31.8707 1162 31.614 1163.04 31.614C1163.83 31.614 1164.59 31.79 1165.31 32.142C1166.03 32.4793 1166.6 32.934 1167.02 33.506V27.72H1170.15V44H1167.02V42.196C1166.64 42.7973 1166.11 43.2813 1165.42 43.648C1164.73 44.0147 1163.93 44.198 1163.02 44.198C1161.99 44.198 1161.06 43.934 1160.2 43.406C1159.35 42.878 1158.68 42.1373 1158.18 41.184C1157.7 40.216 1157.45 39.1087 1157.45 37.862ZM1167.05 37.906C1167.05 37.158 1166.9 36.52 1166.61 35.992C1166.31 35.4493 1165.92 35.0387 1165.42 34.76C1164.92 34.4667 1164.38 34.32 1163.81 34.32C1163.24 34.32 1162.71 34.4593 1162.23 34.738C1161.74 35.0167 1161.35 35.4273 1161.04 35.97C1160.75 36.498 1160.6 37.1287 1160.6 37.862C1160.6 38.5953 1160.75 39.2407 1161.04 39.798C1161.35 40.3407 1161.74 40.7587 1162.23 41.052C1162.73 41.3453 1163.26 41.492 1163.81 41.492C1164.38 41.492 1164.92 41.3527 1165.42 41.074C1165.92 40.7807 1166.31 40.37 1166.61 39.842C1166.9 39.2993 1167.05 38.654 1167.05 37.906ZM1177.93 31.614C1178.84 31.614 1179.64 31.7973 1180.33 32.164C1181.02 32.516 1181.56 32.978 1181.96 33.55V31.812H1185.06V44.088C1185.06 45.2173 1184.83 46.222 1184.38 47.102C1183.92 47.9967 1183.24 48.7007 1182.33 49.214C1181.42 49.742 1180.32 50.006 1179.03 50.006C1177.3 50.006 1175.88 49.6027 1174.76 48.796C1173.66 47.9893 1173.04 46.8893 1172.89 45.496H1175.95C1176.11 46.0533 1176.46 46.4933 1176.98 46.816C1177.53 47.1533 1178.18 47.322 1178.94 47.322C1179.84 47.322 1180.56 47.0507 1181.12 46.508C1181.68 45.98 1181.96 45.1733 1181.96 44.088V42.196C1181.56 42.768 1181.01 43.2447 1180.31 43.626C1179.62 44.0073 1178.83 44.198 1177.93 44.198C1176.9 44.198 1175.97 43.934 1175.11 43.406C1174.26 42.878 1173.59 42.1373 1173.09 41.184C1172.61 40.216 1172.36 39.1087 1172.36 37.862C1172.36 36.63 1172.61 35.5373 1173.09 34.584C1173.59 33.6307 1174.26 32.8973 1175.09 32.384C1175.94 31.8707 1176.89 31.614 1177.93 31.614ZM1181.96 37.906C1181.96 37.158 1181.81 36.52 1181.52 35.992C1181.22 35.4493 1180.83 35.0387 1180.33 34.76C1179.83 34.4667 1179.29 34.32 1178.72 34.32C1178.15 34.32 1177.62 34.4593 1177.14 34.738C1176.65 35.0167 1176.26 35.4273 1175.95 35.97C1175.66 36.498 1175.51 37.1287 1175.51 37.862C1175.51 38.5953 1175.66 39.2407 1175.95 39.798C1176.26 40.3407 1176.65 40.7587 1177.14 41.052C1177.64 41.3453 1178.17 41.492 1178.72 41.492C1179.29 41.492 1179.83 41.3527 1180.33 41.074C1180.83 40.7807 1181.22 40.37 1181.52 39.842C1181.81 39.2993 1181.96 38.654 1181.96 37.906ZM1199.4 37.642C1199.4 38.082 1199.37 38.478 1199.31 38.83H1190.4C1190.47 39.71 1190.78 40.3993 1191.32 40.898C1191.87 41.3967 1192.53 41.646 1193.32 41.646C1194.47 41.646 1195.28 41.1547 1195.77 40.172H1199.09C1198.74 41.3453 1198.06 42.3133 1197.06 43.076C1196.07 43.824 1194.84 44.198 1193.39 44.198C1192.22 44.198 1191.16 43.9413 1190.22 43.428C1189.3 42.9 1188.57 42.1593 1188.04 41.206C1187.53 40.2527 1187.27 39.1527 1187.27 37.906C1187.27 36.6447 1187.53 35.5373 1188.04 34.584C1188.56 33.6307 1189.28 32.8973 1190.2 32.384C1191.12 31.8707 1192.19 31.614 1193.39 31.614C1194.55 31.614 1195.58 31.8633 1196.49 32.362C1197.42 32.8607 1198.13 33.572 1198.63 34.496C1199.14 35.4053 1199.4 36.454 1199.4 37.642ZM1196.21 36.762C1196.19 35.97 1195.91 35.3393 1195.35 34.87C1194.79 34.386 1194.11 34.144 1193.3 34.144C1192.54 34.144 1191.89 34.3787 1191.37 34.848C1190.85 35.3027 1190.54 35.9407 1190.42 36.762H1196.21ZM1211.02 34.848V37.444H1201.69V34.848H1211.02ZM1223.18 36.124C1224.05 36.2853 1224.76 36.718 1225.32 37.422C1225.87 38.126 1226.15 38.9327 1226.15 39.842C1226.15 40.6633 1225.95 41.3893 1225.54 42.02C1225.14 42.636 1224.56 43.12 1223.8 43.472C1223.04 43.824 1222.13 44 1221.09 44H1214.47V28.644H1220.81C1221.85 28.644 1222.74 28.8127 1223.49 29.15C1224.25 29.4873 1224.83 29.9567 1225.21 30.558C1225.6 31.1593 1225.8 31.8413 1225.8 32.604C1225.8 33.4987 1225.56 34.2467 1225.08 34.848C1224.61 35.4493 1223.98 35.8747 1223.18 36.124ZM1217.55 34.98H1220.37C1221.1 34.98 1221.67 34.8187 1222.06 34.496C1222.46 34.1587 1222.66 33.682 1222.66 33.066C1222.66 32.45 1222.46 31.9733 1222.06 31.636C1221.67 31.2987 1221.1 31.13 1220.37 31.13H1217.55V34.98ZM1220.65 41.492C1221.4 41.492 1221.98 41.316 1222.39 40.964C1222.82 40.612 1223.03 40.1133 1223.03 39.468C1223.03 38.808 1222.81 38.2947 1222.37 37.928C1221.93 37.5467 1221.34 37.356 1220.59 37.356H1217.55V41.492H1220.65ZM1227.82 37.862C1227.82 36.63 1228.06 35.5373 1228.54 34.584C1229.04 33.6307 1229.71 32.8973 1230.54 32.384C1231.39 31.8707 1232.34 31.614 1233.38 31.614C1234.29 31.614 1235.08 31.7973 1235.76 32.164C1236.45 32.5307 1237 32.9927 1237.41 33.55V31.812H1240.51V44H1237.41V42.218C1237.01 42.79 1236.46 43.2667 1235.76 43.648C1235.07 44.0147 1234.27 44.198 1233.36 44.198C1232.33 44.198 1231.39 43.934 1230.54 43.406C1229.71 42.878 1229.04 42.1373 1228.54 41.184C1228.06 40.216 1227.82 39.1087 1227.82 37.862ZM1237.41 37.906C1237.41 37.158 1237.26 36.52 1236.97 35.992C1236.67 35.4493 1236.28 35.0387 1235.78 34.76C1235.28 34.4667 1234.75 34.32 1234.17 34.32C1233.6 34.32 1233.07 34.4593 1232.59 34.738C1232.11 35.0167 1231.71 35.4273 1231.4 35.97C1231.11 36.498 1230.96 37.1287 1230.96 37.862C1230.96 38.5953 1231.11 39.2407 1231.4 39.798C1231.71 40.3407 1232.11 40.7587 1232.59 41.052C1233.09 41.3453 1233.62 41.492 1234.17 41.492C1234.75 41.492 1235.28 41.3527 1235.78 41.074C1236.28 40.7807 1236.67 40.37 1236.97 39.842C1237.26 39.2993 1237.41 38.654 1237.41 37.906ZM1248.18 44.198C1247.18 44.198 1246.29 44.022 1245.5 43.67C1244.71 43.3033 1244.08 42.812 1243.61 42.196C1243.15 41.58 1242.9 40.898 1242.86 40.15H1245.96C1246.02 40.6193 1246.25 41.008 1246.64 41.316C1247.05 41.624 1247.56 41.778 1248.16 41.778C1248.75 41.778 1249.2 41.6607 1249.52 41.426C1249.86 41.1913 1250.03 40.8907 1250.03 40.524C1250.03 40.128 1249.82 39.8347 1249.41 39.644C1249.02 39.4387 1248.38 39.2187 1247.5 38.984C1246.59 38.764 1245.84 38.5367 1245.26 38.302C1244.68 38.0673 1244.19 37.708 1243.76 37.224C1243.35 36.74 1243.14 36.0873 1243.14 35.266C1243.14 34.5913 1243.33 33.9753 1243.72 33.418C1244.11 32.8607 1244.67 32.4207 1245.39 32.098C1246.12 31.7753 1246.98 31.614 1247.96 31.614C1249.41 31.614 1250.57 31.9807 1251.44 32.714C1252.3 33.4327 1252.78 34.408 1252.87 35.64H1249.92C1249.88 35.156 1249.67 34.7747 1249.3 34.496C1248.95 34.2027 1248.48 34.056 1247.87 34.056C1247.32 34.056 1246.88 34.1587 1246.58 34.364C1246.28 34.5693 1246.14 34.8553 1246.14 35.222C1246.14 35.6327 1246.34 35.948 1246.75 36.168C1247.16 36.3733 1247.8 36.586 1248.67 36.806C1249.55 37.026 1250.27 37.2533 1250.84 37.488C1251.42 37.7227 1251.91 38.0893 1252.32 38.588C1252.74 39.072 1252.96 39.7173 1252.98 40.524C1252.98 41.228 1252.78 41.8587 1252.38 42.416C1252 42.9733 1251.45 43.4133 1250.71 43.736C1249.99 44.044 1249.15 44.198 1248.18 44.198ZM1266.84 37.642C1266.84 38.082 1266.81 38.478 1266.75 38.83H1257.84C1257.91 39.71 1258.22 40.3993 1258.76 40.898C1259.3 41.3967 1259.97 41.646 1260.76 41.646C1261.91 41.646 1262.72 41.1547 1263.21 40.172H1266.53C1266.18 41.3453 1265.5 42.3133 1264.5 43.076C1263.51 43.824 1262.28 44.198 1260.83 44.198C1259.66 44.198 1258.6 43.9413 1257.66 43.428C1256.74 42.9 1256.01 42.1593 1255.48 41.206C1254.97 40.2527 1254.71 39.1527 1254.71 37.906C1254.71 36.6447 1254.97 35.5373 1255.48 34.584C1256 33.6307 1256.72 32.8973 1257.64 32.384C1258.56 31.8707 1259.63 31.614 1260.83 31.614C1261.99 31.614 1263.02 31.8633 1263.93 32.362C1264.86 32.8607 1265.57 33.572 1266.07 34.496C1266.58 35.4053 1266.84 36.454 1266.84 37.642ZM1263.65 36.762C1263.63 35.97 1263.35 35.3393 1262.79 34.87C1262.23 34.386 1261.55 34.144 1260.74 34.144C1259.98 34.144 1259.33 34.3787 1258.81 34.848C1258.29 35.3027 1257.98 35.9407 1257.86 36.762H1263.65ZM1268.29 37.862C1268.29 36.63 1268.53 35.5373 1269.02 34.584C1269.52 33.6307 1270.19 32.8973 1271.04 32.384C1271.89 31.8707 1272.84 31.614 1273.88 31.614C1274.67 31.614 1275.43 31.79 1276.15 32.142C1276.87 32.4793 1277.44 32.934 1277.86 33.506V27.72H1280.99V44H1277.86V42.196C1277.48 42.7973 1276.95 43.2813 1276.26 43.648C1275.57 44.0147 1274.77 44.198 1273.86 44.198C1272.83 44.198 1271.89 43.934 1271.04 43.406C1270.19 42.878 1269.52 42.1373 1269.02 41.184C1268.53 40.216 1268.29 39.1087 1268.29 37.862ZM1277.88 37.906C1277.88 37.158 1277.74 36.52 1277.44 35.992C1277.15 35.4493 1276.76 35.0387 1276.26 34.76C1275.76 34.4667 1275.22 34.32 1274.65 34.32C1274.08 34.32 1273.55 34.4593 1273.07 34.738C1272.58 35.0167 1272.19 35.4273 1271.88 35.97C1271.59 36.498 1271.44 37.1287 1271.44 37.862C1271.44 38.5953 1271.59 39.2407 1271.88 39.798C1272.19 40.3407 1272.58 40.7587 1273.07 41.052C1273.57 41.3453 1274.09 41.492 1274.65 41.492C1275.22 41.492 1275.76 41.3527 1276.26 41.074C1276.76 40.7807 1277.15 40.37 1277.44 39.842C1277.74 39.2993 1277.88 38.654 1277.88 37.906ZM1068.82 77.154C1067.75 77.154 1066.78 76.9707 1065.92 76.604C1065.07 76.2373 1064.39 75.7093 1063.89 75.02C1063.39 74.3307 1063.14 73.5167 1063.12 72.578H1066.42C1066.47 73.2087 1066.69 73.7073 1067.08 74.074C1067.49 74.4407 1068.05 74.624 1068.75 74.624C1069.47 74.624 1070.04 74.4553 1070.45 74.118C1070.86 73.766 1071.06 73.3113 1071.06 72.754C1071.06 72.2993 1070.92 71.9253 1070.65 71.632C1070.37 71.3387 1070.02 71.1113 1069.59 70.95C1069.18 70.774 1068.61 70.5833 1067.87 70.378C1066.88 70.0847 1066.06 69.7987 1065.43 69.52C1064.82 69.2267 1064.28 68.794 1063.83 68.222C1063.39 67.6353 1063.17 66.858 1063.17 65.89C1063.17 64.9807 1063.39 64.1887 1063.85 63.514C1064.3 62.8393 1064.94 62.326 1065.76 61.974C1066.58 61.6073 1067.52 61.424 1068.58 61.424C1070.16 61.424 1071.45 61.8127 1072.43 62.59C1073.43 63.3527 1073.98 64.4233 1074.08 65.802H1070.69C1070.66 65.274 1070.43 64.8413 1070.01 64.504C1069.6 64.152 1069.05 63.976 1068.36 63.976C1067.76 63.976 1067.27 64.13 1066.91 64.438C1066.55 64.746 1066.38 65.1933 1066.38 65.78C1066.38 66.1907 1066.51 66.5353 1066.77 66.814C1067.05 67.078 1067.39 67.298 1067.79 67.474C1068.2 67.6353 1068.77 67.826 1069.5 68.046C1070.5 68.3393 1071.31 68.6327 1071.94 68.926C1072.57 69.2193 1073.12 69.6593 1073.57 70.246C1074.03 70.8327 1074.25 71.6027 1074.25 72.556C1074.25 73.3773 1074.04 74.14 1073.62 74.844C1073.19 75.548 1072.57 76.1127 1071.75 76.538C1070.92 76.9487 1069.95 77.154 1068.82 77.154ZM1083.79 64.636C1084.71 64.636 1085.53 64.8413 1086.25 65.252C1086.97 65.648 1087.53 66.242 1087.92 67.034C1088.33 67.8113 1088.54 68.75 1088.54 69.85V77H1085.46V70.268C1085.46 69.3 1085.22 68.5593 1084.73 68.046C1084.25 67.518 1083.59 67.254 1082.75 67.254C1081.9 67.254 1081.23 67.518 1080.73 68.046C1080.25 68.5593 1080 69.3 1080 70.268V77H1076.92V60.72H1080V66.33C1080.4 65.802 1080.93 65.3913 1081.59 65.098C1082.25 64.79 1082.98 64.636 1083.79 64.636ZM1093.03 63.36C1092.49 63.36 1092.03 63.1913 1091.67 62.854C1091.32 62.502 1091.14 62.0693 1091.14 61.556C1091.14 61.0427 1091.32 60.6173 1091.67 60.28C1092.03 59.928 1092.49 59.752 1093.03 59.752C1093.57 59.752 1094.02 59.928 1094.37 60.28C1094.74 60.6173 1094.92 61.0427 1094.92 61.556C1094.92 62.0693 1094.74 62.502 1094.37 62.854C1094.02 63.1913 1093.57 63.36 1093.03 63.36ZM1094.55 64.812V77H1091.47V64.812H1094.55ZM1100.67 66.572C1101.07 66.0147 1101.61 65.5527 1102.3 65.186C1103 64.8047 1103.8 64.614 1104.7 64.614C1105.74 64.614 1106.68 64.8707 1107.51 65.384C1108.36 65.8973 1109.03 66.6307 1109.52 67.584C1110.01 68.5227 1110.26 69.6153 1110.26 70.862C1110.26 72.1087 1110.01 73.216 1109.52 74.184C1109.03 75.1373 1108.36 75.878 1107.51 76.406C1106.68 76.934 1105.74 77.198 1104.7 77.198C1103.8 77.198 1103.01 77.0147 1102.32 76.648C1101.65 76.2813 1101.1 75.8193 1100.67 75.262V82.808H1097.59V64.812H1100.67V66.572ZM1107.12 70.862C1107.12 70.1287 1106.96 69.498 1106.66 68.97C1106.36 68.4273 1105.97 68.0167 1105.47 67.738C1104.98 67.4593 1104.46 67.32 1103.88 67.32C1103.33 67.32 1102.8 67.4667 1102.3 67.76C1101.82 68.0387 1101.42 68.4493 1101.11 68.992C1100.82 69.5347 1100.67 70.1727 1100.67 70.906C1100.67 71.6393 1100.82 72.2773 1101.11 72.82C1101.42 73.3627 1101.82 73.7807 1102.3 74.074C1102.8 74.3527 1103.33 74.492 1103.88 74.492C1104.46 74.492 1104.98 74.3453 1105.47 74.052C1105.97 73.7587 1106.36 73.3407 1106.66 72.798C1106.96 72.2553 1107.12 71.61 1107.12 70.862ZM1115.58 66.572C1115.98 66.0147 1116.52 65.5527 1117.21 65.186C1117.91 64.8047 1118.71 64.614 1119.61 64.614C1120.65 64.614 1121.59 64.8707 1122.42 65.384C1123.28 65.8973 1123.94 66.6307 1124.43 67.584C1124.93 68.5227 1125.17 69.6153 1125.17 70.862C1125.17 72.1087 1124.93 73.216 1124.43 74.184C1123.94 75.1373 1123.28 75.878 1122.42 76.406C1121.59 76.934 1120.65 77.198 1119.61 77.198C1118.71 77.198 1117.92 77.0147 1117.23 76.648C1116.56 76.2813 1116.01 75.8193 1115.58 75.262V82.808H1112.5V64.812H1115.58V66.572ZM1122.03 70.862C1122.03 70.1287 1121.87 69.498 1121.57 68.97C1121.27 68.4273 1120.88 68.0167 1120.38 67.738C1119.89 67.4593 1119.37 67.32 1118.79 67.32C1118.24 67.32 1117.71 67.4667 1117.21 67.76C1116.73 68.0387 1116.33 68.4493 1116.02 68.992C1115.73 69.5347 1115.58 70.1727 1115.58 70.906C1115.58 71.6393 1115.73 72.2773 1116.02 72.82C1116.33 73.3627 1116.73 73.7807 1117.21 74.074C1117.71 74.3527 1118.24 74.492 1118.79 74.492C1119.37 74.492 1119.89 74.3453 1120.38 74.052C1120.88 73.7587 1121.27 73.3407 1121.57 72.798C1121.87 72.2553 1122.03 71.61 1122.03 70.862ZM1128.97 63.36C1128.43 63.36 1127.98 63.1913 1127.61 62.854C1127.26 62.502 1127.08 62.0693 1127.08 61.556C1127.08 61.0427 1127.26 60.6173 1127.61 60.28C1127.98 59.928 1128.43 59.752 1128.97 59.752C1129.52 59.752 1129.96 59.928 1130.32 60.28C1130.68 60.6173 1130.87 61.0427 1130.87 61.556C1130.87 62.0693 1130.68 62.502 1130.32 62.854C1129.96 63.1913 1129.52 63.36 1128.97 63.36ZM1130.49 64.812V77H1127.41V64.812H1130.49ZM1140.29 64.636C1141.74 64.636 1142.91 65.098 1143.81 66.022C1144.7 66.9313 1145.15 68.2073 1145.15 69.85V77H1142.07V70.268C1142.07 69.3 1141.83 68.5593 1141.35 68.046C1140.86 67.518 1140.2 67.254 1139.37 67.254C1138.51 67.254 1137.84 67.518 1137.34 68.046C1136.86 68.5593 1136.62 69.3 1136.62 70.268V77H1133.54V64.812H1136.62V66.33C1137.03 65.802 1137.55 65.3913 1138.18 65.098C1138.82 64.79 1139.53 64.636 1140.29 64.636ZM1152.85 64.614C1153.76 64.614 1154.56 64.7973 1155.25 65.164C1155.94 65.516 1156.48 65.978 1156.88 66.55V64.812H1159.98V77.088C1159.98 78.2173 1159.76 79.222 1159.3 80.102C1158.85 80.9967 1158.16 81.7007 1157.25 82.214C1156.35 82.742 1155.25 83.006 1153.95 83.006C1152.22 83.006 1150.8 82.6027 1149.69 81.796C1148.59 80.9893 1147.96 79.8893 1147.82 78.496H1150.87C1151.04 79.0533 1151.38 79.4933 1151.91 79.816C1152.45 80.1533 1153.1 80.322 1153.87 80.322C1154.76 80.322 1155.49 80.0507 1156.04 79.508C1156.6 78.98 1156.88 78.1733 1156.88 77.088V75.196C1156.48 75.768 1155.93 76.2447 1155.23 76.626C1154.54 77.0073 1153.75 77.198 1152.85 77.198C1151.83 77.198 1150.89 76.934 1150.04 76.406C1149.19 75.878 1148.51 75.1373 1148.01 74.184C1147.53 73.216 1147.29 72.1087 1147.29 70.862C1147.29 69.63 1147.53 68.5373 1148.01 67.584C1148.51 66.6307 1149.18 65.8973 1150.02 65.384C1150.87 64.8707 1151.81 64.614 1152.85 64.614ZM1156.88 70.906C1156.88 70.158 1156.73 69.52 1156.44 68.992C1156.15 68.4493 1155.75 68.0387 1155.25 67.76C1154.75 67.4667 1154.22 67.32 1153.65 67.32C1153.07 67.32 1152.55 67.4593 1152.06 67.738C1151.58 68.0167 1151.18 68.4273 1150.87 68.97C1150.58 69.498 1150.43 70.1287 1150.43 70.862C1150.43 71.5953 1150.58 72.2407 1150.87 72.798C1151.18 73.3407 1151.58 73.7587 1152.06 74.052C1152.56 74.3453 1153.09 74.492 1153.65 74.492C1154.22 74.492 1154.75 74.3527 1155.25 74.074C1155.75 73.7807 1156.15 73.37 1156.44 72.842C1156.73 72.2993 1156.88 71.654 1156.88 70.906Z" fill="#042F7C"/>
<path d="M244 15V100" stroke="#434248" stroke-width="2"/>
<path d="M448 15V100" stroke="#434248" stroke-width="2"/>
<path d="M802 15V100" stroke="#434248" stroke-width="2"/>
<path d="M1036 15V100" stroke="#434248" stroke-width="2"/>
</svg>
