<svg width="29" height="30" viewBox="0 0 29 30" fill="none" xmlns="http://www.w3.org/2000/svg">
<path d="M22.8516 10.5469C21.1148 10.5469 19.5843 9.69252 18.623 8.39326L10.3119 12.649C10.4499 13.1193 10.5469 13.6068 10.5469 14.1211C10.5469 14.8187 10.4038 15.4819 10.1568 16.092L18.8547 21.326C19.8227 20.19 21.2454 19.4531 22.8516 19.4531C25.7595 19.4531 28.125 21.8186 28.125 24.7266C28.125 27.6345 25.7595 30 22.8516 30C19.9436 30 17.5781 27.6345 17.5781 24.7266C17.5781 24.0564 17.7161 23.4207 17.945 22.8306L9.22119 17.5812C8.25404 18.6834 6.85178 19.3945 5.27344 19.3945C2.36549 19.3945 0 17.029 0 14.1211C0 11.2131 2.36549 8.84766 5.27344 8.84766C7.03887 8.84766 8.59518 9.72709 9.55283 11.0629L17.8366 6.82096C17.684 6.32842 17.5781 5.81543 17.5781 5.27344C17.5781 2.36549 19.9436 0 22.8516 0C25.7595 0 28.125 2.36549 28.125 5.27344C28.125 8.18139 25.7595 10.5469 22.8516 10.5469Z" fill="white"/>
</svg>
