<svg width="104" height="83" viewBox="0 0 104 83" fill="none" xmlns="http://www.w3.org/2000/svg">
<path d="M95.5129 22.0016C95.5129 18.3049 92.4864 15.2972 88.7661 15.2972C85.0459 15.2972 82.0195 18.3049 82.0195 22.0016C82.0195 25.6983 85.0459 28.7059 88.7661 28.7059C92.4864 28.7059 95.5129 25.6985 95.5129 22.0016ZM86.082 22.0016C86.082 20.5309 87.2862 19.3343 88.7661 19.3343C90.2463 19.3343 91.4504 20.5309 91.4504 22.0016C91.4504 23.4723 90.2463 24.6689 88.7661 24.6689C87.2862 24.6691 86.082 23.4723 86.082 22.0016Z" fill="#042F7C"/>
<path d="M97.3504 36.599C100.895 31.9899 104 26.7772 104 22.0016C104 13.654 97.166 6.86261 88.7657 6.86261C80.3655 6.86261 73.5314 13.654 73.5314 22.0016C73.5314 26.7772 76.6372 31.9899 80.1813 36.599C76.911 38.0261 74.638 40.2433 73.8432 42.7791H56.0626C52.7025 42.7791 49.9689 45.4957 49.9689 48.8347V49.844C49.9689 50.9588 50.8783 51.8625 52.0001 51.8625C53.122 51.8625 54.0314 50.9588 54.0314 49.844V48.8347C54.0314 47.7217 54.9424 46.8162 56.0626 46.8162H73.8369C75.2368 51.3549 81.2932 54.6743 88.7657 54.6743C97.3084 54.6743 104 50.3359 104 44.7977C104 41.4402 101.465 38.3943 97.3504 36.599ZM88.7657 10.8997C94.9259 10.8997 99.9376 15.88 99.9376 22.0016C99.9376 27.7631 93.1015 35.6222 88.7657 40.5149C84.4305 35.6226 77.5939 27.7633 77.5939 22.0016C77.5939 15.88 82.6056 10.8997 88.7657 10.8997ZM88.7657 50.6375C82.1821 50.6375 77.5939 47.5598 77.5939 44.7979C77.5939 42.8825 79.6666 40.9812 82.8509 39.8924C83.9692 41.2125 85.066 42.4493 86.0615 43.5716C86.4745 44.0373 86.868 44.4808 87.2346 44.899C87.6203 45.3386 88.1787 45.5911 88.7657 45.5911C89.3528 45.5911 89.9112 45.3388 90.2969 44.899C90.6635 44.4812 91.0564 44.0381 91.4691 43.5726C92.4649 42.4499 93.5619 41.2127 94.6805 39.8924C97.8649 40.9812 99.9374 42.8825 99.9374 44.7979C99.9376 47.5598 95.3494 50.6375 88.7657 50.6375Z" fill="#042F7C"/>
<path d="M21.9815 50.2611C21.9815 46.5644 18.9549 43.5568 15.2349 43.5568C11.5148 43.5568 8.48828 46.5644 8.48828 50.2611C8.48828 53.9579 11.5148 56.9655 15.2349 56.9655C18.9549 56.9655 21.9815 53.9579 21.9815 50.2611ZM12.5506 50.2611C12.5506 48.7904 13.7547 47.5939 15.2347 47.5939C16.7146 47.5939 17.9188 48.7904 17.9188 50.2611C17.9188 51.7318 16.7148 52.9284 15.2347 52.9284C13.7545 52.9284 12.5506 51.7318 12.5506 50.2611Z" fill="#042F7C"/>
<path d="M18.8761 14.4755C19.2728 14.8697 19.7926 15.0667 20.3124 15.0667C20.8322 15.0667 21.3522 14.8697 21.7487 14.4755C22.5419 13.6872 22.5419 12.4091 21.7487 11.6207L20.1381 10.0202H60.5023L58.8917 11.6207C58.0985 12.4089 58.0985 13.687 58.8917 14.4755C59.2884 14.8697 59.8082 15.0667 60.328 15.0667C60.8478 15.0667 61.3676 14.8697 61.7643 14.4755L66.8425 9.42916C67.6357 8.64092 67.6357 7.36278 66.8425 6.57435L61.7643 1.52802C60.9709 0.739784 59.6851 0.739784 58.8915 1.52802C58.0983 2.31626 58.0983 3.59439 58.8915 4.38283L60.5021 5.98332H20.1381L21.7487 4.38283C22.5419 3.59459 22.5419 2.31646 21.7487 1.52802C20.9555 0.739582 19.6693 0.739784 18.8759 1.52802L13.7978 6.57435C13.0046 7.36258 13.0046 8.64072 13.7978 9.42916L18.8761 14.4755Z" fill="#042F7C"/>
<path d="M52 65.9922C50.8781 65.9922 49.9688 66.8959 49.9688 68.0107V69.02C49.9688 70.133 49.0575 71.0385 47.9375 71.0385H30.1568C29.3619 68.5028 27.0892 66.2855 23.8188 64.8584C27.363 60.2495 30.4688 55.0368 30.4688 50.2612C30.4688 41.9135 23.6346 35.1222 15.2344 35.1222C6.83414 35.1222 0 41.9135 0 50.2612C0 55.0368 3.10578 60.2497 6.64991 64.8586C2.53561 66.6539 0 69.6998 0 73.057C0 78.5955 6.69175 82.9339 15.2344 82.9339C22.7069 82.9339 28.7633 79.6142 30.1632 75.0756H47.9377C51.2978 75.0756 54.0315 72.359 54.0315 69.02V68.0107C54.0315 66.8959 53.1219 65.9922 52 65.9922ZM15.2344 39.1593C21.3945 39.1593 26.4062 44.1396 26.4062 50.2612C26.4062 56.0227 19.5699 63.882 15.2344 68.7745C10.8991 63.8822 4.0625 56.0229 4.0625 50.2612C4.0625 44.1396 9.0742 39.1593 15.2344 39.1593ZM15.2344 78.8969C8.65069 78.8969 4.0625 75.8192 4.0625 73.057C4.0625 71.1417 6.13519 69.2406 9.31958 68.1518C10.4378 69.4719 11.5349 70.7087 12.5302 71.831C12.9433 72.2967 13.3366 72.7401 13.7034 73.1584C14.0892 73.598 14.6473 73.8505 15.2346 73.8505C15.8218 73.8505 16.38 73.5982 16.7657 73.1584C17.1326 72.7403 17.5256 72.2971 17.9384 71.8316C18.9339 70.7091 20.031 69.4721 21.1494 68.1518C24.3336 69.2406 26.4062 71.1419 26.4062 73.057C26.4062 75.8192 21.8181 78.8969 15.2344 78.8969Z" fill="#042F7C"/>
<path d="M52.0006 60.9458C53.1225 60.9458 54.0319 60.0421 54.0319 58.9272C54.0319 57.8124 53.1225 56.9087 52.0006 56.9087H51.9992C50.8773 56.9087 49.9688 57.8124 49.9688 58.9272C49.9688 60.0421 50.879 60.9458 52.0006 60.9458Z" fill="#042F7C"/>
<path d="M33.7277 30.0001L29.0077 23.8001V30.0001H25.5877V15.9601H29.0077V22.1201L33.6877 15.9601H37.7077L32.2677 22.8401L37.9077 30.0001H33.7277ZM55.433 15.9601V30.0001H52.013V21.5801L48.873 30.0001H46.113L42.953 21.5601V30.0001H39.533V15.9601H43.573L47.513 25.6801L51.413 15.9601H55.433Z" fill="#042F7C"/>
</svg>
