<svg width="50" height="83" viewBox="0 0 50 83" fill="none" xmlns="http://www.w3.org/2000/svg">
<path d="M37.306 18.3187C37.306 11.5694 31.8004 6.09824 25.0085 6.09824C18.2172 6.09824 12.7109 11.5694 12.7109 18.3187C12.7109 25.0681 18.2172 30.5393 25.0085 30.5393C31.797 30.532 37.2986 25.0648 37.306 18.3187ZM15.4437 18.3187C15.4437 13.0691 19.7264 8.81391 25.0085 8.81391C30.2912 8.81391 34.5732 13.0691 34.5732 18.3187C34.5732 23.5678 30.2912 27.8236 25.0085 27.8236C19.729 27.8176 15.4497 23.5658 15.4437 18.3187Z" fill="#042F7C"/>
<path d="M25.0071 82.137C36.853 82.137 49.6022 79.8 49.6022 74.669C49.6022 69.9053 38.8505 67.7532 29.1063 67.3023V35.4774C37.8751 33.4108 43.6969 25.1464 42.6501 16.2516C41.6033 7.35669 34.0195 0.650391 25.0071 0.650391C15.9955 0.650391 8.41163 7.35669 7.36482 16.2516C6.31735 25.1464 12.1392 33.4108 20.908 35.4774V67.3023C11.1644 67.7532 0.412109 69.9053 0.412109 74.669C0.412109 79.8 13.162 82.137 25.0071 82.137ZM9.97684 18.3188C9.96884 10.3919 16.193 3.83878 24.1572 3.39059C32.1213 2.9424 39.0507 8.7543 39.9434 16.6315C40.8361 24.508 35.3812 31.7062 27.5164 33.0296C27.0901 33.0999 26.6964 33.1516 26.3015 33.1894C25.8751 33.2265 25.4461 33.255 25.0098 33.255C24.5741 33.255 24.1451 33.2265 23.7188 33.1894C23.3292 33.1516 22.9302 33.0999 22.5039 33.0296C15.2803 31.8116 9.99019 25.5993 9.97684 18.3188ZM26.3735 35.911V72.6322C26.3735 73.3821 25.7617 73.99 25.0071 73.99C24.2526 73.99 23.6408 73.3821 23.6408 72.6322V35.911C24.5501 35.9912 25.4648 35.9912 26.3735 35.911ZM20.908 70.0166V72.6322C20.908 74.8818 22.7434 76.7057 25.0071 76.7057C27.2716 76.7057 29.1063 74.8818 29.1063 72.6322V70.0166C40.7753 70.5669 46.8694 73.2879 46.8694 74.669C46.8694 76.2821 39.1534 79.4214 25.0071 79.4214C10.8609 79.4214 3.14489 76.2821 3.14489 74.669C3.14489 73.2879 9.23894 70.5669 20.908 70.0166Z" fill="#042F7C"/>
</svg>
