<svg width="107" height="68" viewBox="0 0 107 68" fill="none" xmlns="http://www.w3.org/2000/svg">
<path d="M98.6996 28.9011L95.9512 17.9767C96.7026 17.8181 97.2664 17.1556 97.2664 16.362V14.6006C97.2664 10.7763 94.1354 7.66507 90.2872 7.66507H77.769V4.0319C77.769 2.15002 76.2284 0.619141 74.3347 0.619141H10.5242C8.63045 0.619141 7.08992 2.15002 7.08992 4.0319V33.976C7.08992 34.8879 7.83386 35.6274 8.75171 35.6274C9.66935 35.6274 10.4135 34.8881 10.4135 33.976V4.0319C10.4135 3.97114 10.463 3.92191 10.5242 3.92191H74.3345C74.3956 3.92191 74.4452 3.97114 74.4452 4.0319V33.9764C74.4452 34.8883 75.1891 35.6278 76.1069 35.6278C77.0246 35.6278 77.7687 34.8885 77.7687 33.9764V32.1044H97.3713C97.373 32.1044 97.3742 32.1048 97.3757 32.1048C97.3773 32.1048 97.3788 32.1046 97.3802 32.1046C99.7924 32.1063 101.841 33.6796 102.544 35.8476H97.3769C96.4593 35.8476 95.7151 36.5868 95.7151 37.499V41.0217C95.7151 43.8748 98.0508 46.1959 100.922 46.1959H102.805V53.4616H98.4602C97.0328 49.366 93.115 46.4158 88.5143 46.4158C83.9137 46.4158 79.9956 49.366 78.5684 53.4616H77.7683V41.0215C77.7683 40.1096 77.0244 39.3701 76.1065 39.3701C75.1889 39.3701 74.4447 40.1094 74.4447 41.0215V53.4612H39.9677C38.5404 49.3656 34.6225 46.4154 30.0219 46.4154C25.4212 46.4154 21.5032 49.3656 20.076 53.4612H10.5242C10.463 53.4612 10.4135 53.4119 10.4135 53.3512V49.7182H17.6143C18.532 49.7182 19.2761 48.9789 19.2761 48.0668C19.2761 47.1547 18.5322 46.4154 17.6143 46.4154H1.66179C0.744147 46.4154 0 47.1547 0 48.0668C0 48.9789 0.74394 49.7182 1.66179 49.7182H7.09012V53.3512C7.09012 55.233 8.63065 56.7639 10.5244 56.7639H19.5006C19.5002 56.8006 19.4977 56.8371 19.4977 56.8739C19.4977 62.6407 24.219 67.3322 30.0219 67.3322C35.8248 67.3322 40.5461 62.6407 40.5461 56.8739C40.5461 56.8369 40.5436 56.8006 40.5432 56.7639H77.993C77.9926 56.8006 77.9901 56.8371 77.9901 56.8739C77.9901 62.6407 82.7114 67.3322 88.5143 67.3322C94.3172 67.3322 99.0385 62.6407 99.0385 56.8739C99.0385 56.8369 99.036 56.8006 99.0356 56.7639H104.467C105.385 56.7639 106.129 56.0246 106.129 55.1125V37.4985C106.129 33.1498 102.9 29.5366 98.6996 28.9011ZM77.769 10.9676H90.2872C92.303 10.9676 93.9431 12.5974 93.9431 14.6006V14.7106H77.769V10.9676ZM77.769 28.8018V18.0132H92.5348L95.2489 28.8018H77.769ZM30.0219 64.0301C26.0514 64.0301 22.8211 60.8202 22.8211 56.8743C22.8211 52.9285 26.0514 49.7186 30.0219 49.7186C33.9924 49.7186 37.2227 52.9285 37.2227 56.8743C37.2227 60.8202 33.9924 64.0301 30.0219 64.0301ZM88.5147 64.0301C84.5442 64.0301 81.3139 60.8202 81.3139 56.8743C81.3139 52.9285 84.5442 49.7186 88.5147 49.7186C92.4852 49.7186 95.7155 52.9285 95.7155 56.8743C95.7155 60.8202 92.4852 64.0301 88.5147 64.0301ZM102.806 42.8931H100.922C99.8838 42.8931 99.0389 42.0535 99.0389 41.0215V39.1499H102.805V42.8931H102.806Z" fill="#042F7C"/>
<path d="M30.0221 53.4615C28.1283 53.4615 26.5878 54.9924 26.5878 56.8743C26.5878 58.7561 28.1283 60.287 30.0221 60.287C31.9158 60.287 33.4563 58.7561 33.4563 56.8743C33.4563 54.9924 31.9158 53.4615 30.0221 53.4615Z" fill="#042F7C"/>
<path d="M88.5144 53.4615C86.6206 53.4615 85.0801 54.9923 85.0801 56.8742C85.0801 58.7561 86.6206 60.287 88.5144 60.287C90.4081 60.287 91.9486 58.7561 91.9486 56.8742C91.9486 54.9923 90.4081 53.4615 88.5144 53.4615Z" fill="#042F7C"/>
<path d="M69.0179 46.4159H44.2028C43.2852 46.4159 42.541 47.1553 42.541 48.0675C42.541 48.9798 43.285 49.7191 44.2028 49.7191H69.0179C69.9356 49.7191 70.6797 48.9798 70.6797 48.0675C70.6797 47.1553 69.9358 46.4159 69.0179 46.4159Z" fill="#042F7C"/>
<path d="M26.4771 39.3701H5.20689C4.28924 39.3701 3.5451 40.1095 3.5451 41.0217C3.5451 41.934 4.28904 42.6734 5.20689 42.6734H26.4771C27.3947 42.6734 28.1388 41.934 28.1388 41.0217C28.1388 40.1095 27.3947 39.3701 26.4771 39.3701Z" fill="#042F7C"/>
<path d="M57.7847 16.9553C57.1359 16.3105 56.0836 16.3105 55.4348 16.9555L40.6571 31.6404L32.9696 24.001C32.3206 23.3561 31.2684 23.3561 30.6196 24.001C29.9706 24.6459 29.9706 25.6913 30.6196 26.3362L39.4822 35.1434C39.8066 35.4659 40.232 35.627 40.6571 35.627C41.0823 35.627 41.5078 35.4659 41.832 35.1434L57.7845 19.2907C58.4335 18.6456 58.4335 17.6002 57.7847 16.9553Z" fill="#042F7C"/>
</svg>
