<svg width="88" height="88" viewBox="0 0 88 88" fill="none" xmlns="http://www.w3.org/2000/svg">
<path d="M53.0973 82.7244C52.334 82.8205 51.5655 82.8696 50.7961 82.8714H13.2449C12.0846 82.858 10.9549 82.5007 10.0003 81.8452C9.04574 81.1897 8.30982 80.266 7.88686 79.1923C7.46389 78.1186 7.37313 76.9439 7.6262 75.8186C7.87927 74.6934 8.46465 73.6688 9.30734 72.8762C10.4409 74.0678 11.5181 75.1063 12.4288 75.9437C12.1793 76.1181 11.992 76.3666 11.8938 76.6536C11.7957 76.9405 11.7917 77.251 11.8824 77.5403C11.9732 77.8297 12.154 78.0829 12.3989 78.2636C12.6437 78.4443 12.94 78.5431 13.2449 78.5457H19.7744C20.1509 78.5394 20.5101 78.3875 20.7758 78.1224C21.0415 77.8572 21.1928 77.4996 21.1976 77.1255C21.2025 76.7513 21.0604 76.39 20.8016 76.1182C20.5428 75.8463 20.1877 75.6854 19.8115 75.6694C21.044 74.5223 22.5365 73.0453 24.052 71.3363H46.5012C46.886 71.3363 47.2551 71.1843 47.5272 70.9139C47.7993 70.6435 47.9522 70.2768 47.9522 69.8944C47.9522 69.5119 47.7993 69.1452 47.5272 68.8748C47.2551 68.6044 46.886 68.4525 46.5012 68.4525H26.43C28.6399 65.7067 30.3191 62.578 31.3826 59.2246C34.7288 60.2215 45.3779 59.6685 48.9682 59.8012C49.3482 59.7938 49.71 59.6387 49.9761 59.369C50.2422 59.0994 50.3912 58.7368 50.3912 58.3592C50.3912 57.9816 50.2421 57.619 49.976 57.3494C49.71 57.0798 49.3481 56.9246 48.9681 56.9173C45.6445 56.7803 34.9689 57.3349 31.8961 56.3759C31.9967 54.8108 31.8504 53.2397 31.4624 51.7195C32.5455 52.1229 33.6766 52.3855 34.8275 52.5008C35.193 52.4934 35.5423 52.3494 35.8057 52.0975C36.069 51.8455 36.2272 51.5042 36.2485 51.1415C36.2699 50.7789 36.1529 50.4215 35.9209 50.1408C35.6889 49.8601 35.3589 49.6765 34.9968 49.6268C33.1537 49.4042 31.3925 48.7405 29.8642 47.6928C28.8485 45.9112 27.4972 44.3404 25.8842 43.0661C25.083 41.4047 24.7017 39.5742 24.7734 37.7333C24.7808 37.5441 24.7506 37.3553 24.6846 37.1777C24.6186 37.0001 24.5179 36.8372 24.3885 36.6983C24.2591 36.5594 24.1034 36.4471 23.9303 36.368C23.7572 36.2889 23.5702 36.2444 23.3798 36.2372C21.0631 36.3183 21.9821 39.3793 22.1363 40.8472C20.683 40.2398 19.1465 39.8516 17.5778 39.6953C17.3713 37.1155 17.7037 34.521 18.5541 32.0749C19.4044 29.6287 20.7545 27.3836 22.5194 25.4805C24.2843 23.5775 26.426 22.0574 28.8101 21.0159C31.1942 19.9743 33.7692 19.4337 36.3735 19.428H55.0362C56.0906 20.9644 57.2715 22.4113 58.5668 23.7537H55.6138C55.2339 23.761 54.872 23.9162 54.606 24.1858C54.3399 24.4554 54.1909 24.818 54.1909 25.1956C54.1909 25.5732 54.34 25.9358 54.606 26.2054C54.8721 26.475 55.234 26.6301 55.6139 26.6374H61.5943C63.0373 27.7693 63.3345 28.5532 64.7449 27.776C66.3965 26.4605 67.9502 25.028 69.3937 23.4896C69.6581 24.3521 69.7161 25.2639 69.563 26.1526C69.4099 27.0412 69.05 27.882 68.5121 28.6079C67.9741 29.3339 67.2728 29.9248 66.4643 30.3337C65.6557 30.7427 64.7622 30.9582 63.855 30.9631H36.3735C26.7952 31.2623 26.7798 45.0781 36.3737 45.3821H50.7961C54.6692 45.3778 58.4486 46.5658 61.6147 48.7827C61.9296 49.0023 62.3194 49.0885 62.6983 49.0225C63.0773 48.9565 63.4143 48.7436 63.6353 48.4307C63.8562 48.1177 63.9431 47.7303 63.8766 47.3538C63.8102 46.9772 63.5959 46.6423 63.281 46.4227C59.6274 43.864 55.2658 42.493 50.7961 42.4983H36.3734C35.219 42.4983 34.1118 42.0426 33.2954 41.2313C32.4791 40.4201 32.0205 39.3199 32.0205 38.1726C32.0205 37.0254 32.4791 35.9251 33.2954 35.1139C34.1118 34.3027 35.219 33.8469 36.3734 33.8469H63.855C65.3594 33.8342 66.835 33.4359 68.139 32.6904C69.4431 31.9449 70.5315 30.8776 71.2988 29.5917C72.0661 28.3057 72.4864 26.8447 72.5191 25.3501C72.5517 23.8554 72.1956 22.3777 71.4851 21.0599C73.6315 18.3291 75.4628 15.0845 75.4628 11.9298C75.4204 8.91003 74.1745 6.03023 71.9985 3.92194C69.8225 1.81365 66.8939 0.64897 63.855 0.683303C55.676 0.543439 49.6329 9.2588 53.3924 16.5442H36.3734C33.3894 16.5509 30.4386 17.166 27.7034 18.3515C24.9682 19.537 22.507 21.2676 20.4718 23.4363C18.4367 25.6049 16.8711 28.1655 15.8718 30.9596C14.8725 33.7537 14.4608 36.7219 14.6622 39.6804C10.6727 40.0099 6.9531 41.816 4.23991 44.7411C1.52671 47.6663 0.0177277 51.4972 0.0117188 55.4754C0.0117188 60.836 3.66069 66.4325 7.3682 70.7364C6.09139 71.9197 5.20097 73.4563 4.81196 75.1477C4.42296 76.8391 4.55324 78.6075 5.18598 80.2245C5.81872 81.8415 6.92485 83.2329 8.36147 84.2188C9.7981 85.2047 11.4992 85.7399 13.245 85.7552H50.7961C52.1552 85.6586 54.8593 86.0494 54.7169 83.9761C54.6935 83.7881 54.633 83.6066 54.5388 83.4419C54.4447 83.2773 54.3188 83.1327 54.1684 83.0164C54.0179 82.9001 53.8459 82.8145 53.6621 82.7644C53.4783 82.7143 53.2864 82.7007 53.0973 82.7244ZM63.855 3.5671C66.1245 3.53193 68.3154 4.39252 69.9474 5.96018C71.5794 7.52783 72.5192 9.67461 72.5609 11.9298C72.5609 16.4801 66.917 22.1885 63.855 24.7759C60.428 21.822 55.2284 16.5114 55.1491 11.9298C55.1907 9.67464 56.1306 7.52786 57.7625 5.96021C59.3945 4.39255 61.5854 3.53195 63.855 3.5671ZM15.9725 42.4983C19.4347 42.5023 22.754 43.8708 25.2021 46.3036C27.6502 48.7364 29.0274 52.0349 29.0314 55.4754C29.2147 62.3078 20.5572 71.3474 15.9725 75.2177C12.875 72.5486 2.91368 63.3516 2.91368 55.4754C2.91771 52.0349 4.29484 48.7364 6.74297 46.3036C9.19111 43.8708 12.5103 42.5023 15.9725 42.4983Z" fill="#042F7C"/>
<path d="M50.7962 49.7078H48.0146C47.6347 49.7151 47.2729 49.8703 47.0068 50.14C46.7407 50.4096 46.5917 50.7722 46.5917 51.1499C46.5917 51.5276 46.7408 51.8902 47.0069 52.1598C47.2729 52.4295 47.6348 52.5846 48.0147 52.592H50.7962C52.4451 52.2596 55.0786 54.2035 55.8874 52.0944C56.3416 49.5939 52.4298 49.8896 50.7962 49.7078Z" fill="#042F7C"/>
<path d="M41.7415 75.662C41.3616 75.6694 40.9997 75.8245 40.7337 76.0942C40.4676 76.3638 40.3186 76.7265 40.3186 77.1041C40.3186 77.4818 40.4677 77.8444 40.7337 78.1141C40.9998 78.3837 41.3617 78.5389 41.7416 78.5462H48.271C48.6509 78.5388 49.0127 78.3836 49.2788 78.114C49.5449 77.8443 49.6939 77.4817 49.6939 77.104C49.6939 76.7264 49.5448 76.3638 49.2787 76.0941C49.0127 75.8245 48.6508 75.6693 48.2709 75.662H41.7415Z" fill="#042F7C"/>
<path d="M24.6794 55.4754C24.3139 44.042 7.63131 44.0447 7.26758 55.4756C7.63302 66.9088 24.3156 66.9061 24.6794 55.4754ZM10.1695 55.4754C10.1832 53.9547 10.8008 52.5009 11.8878 51.4304C12.9747 50.3598 14.4432 49.7592 15.9735 49.7592C17.5039 49.7593 18.9723 50.3599 20.0593 51.4305C21.1462 52.501 21.7637 53.9548 21.7774 55.4755C21.7637 56.9963 21.1462 58.4501 20.0592 59.5206C18.9722 60.5911 17.5038 61.1917 15.9734 61.1917C14.443 61.1917 12.9746 60.5911 11.8877 59.5205C10.8007 58.45 10.1832 56.9961 10.1695 55.4754Z" fill="#042F7C"/>
<path d="M69.6586 12.2186C69.6449 10.6979 69.0274 9.24405 67.9404 8.17352C66.8535 7.103 65.385 6.50239 63.8546 6.50241C62.3243 6.50243 60.8558 7.10306 59.7689 8.17361C58.6819 9.24416 58.0645 10.698 58.0508 12.2187C58.0645 13.7394 58.682 15.1932 59.769 16.2638C60.856 17.3343 62.3244 17.9349 63.8548 17.9349C65.3851 17.9349 66.8536 17.3342 67.9405 16.2637C69.0275 15.1931 69.645 13.7393 69.6586 12.2186ZM60.9527 12.2186C60.9638 11.461 61.2744 10.7381 61.8175 10.2063C62.3605 9.67445 63.0923 9.37632 63.8548 9.37634C64.6172 9.37635 65.349 9.67452 65.8921 10.2064C66.4351 10.7383 66.7456 11.4611 66.7567 12.2187C66.7456 12.9763 66.435 13.6991 65.892 14.231C65.3489 14.7628 64.6171 15.061 63.8546 15.0609C63.0922 15.0609 62.3604 14.7628 61.8174 14.2309C61.2744 13.699 60.9638 12.9762 60.9527 12.2186Z" fill="#042F7C"/>
<path d="M68.2065 49.7078C63.2055 49.7134 58.411 51.6901 54.8748 55.2042C51.3386 58.7183 49.3494 63.4828 49.3438 68.4525C50.3799 93.3198 86.037 93.3126 87.0693 68.4523C87.0636 63.4827 85.0745 58.7182 81.5382 55.2042C78.002 51.6901 73.2075 49.7134 68.2065 49.7078ZM68.2065 84.3134C63.9749 84.3086 59.918 82.636 56.9258 79.6626C53.9336 76.6891 52.2505 72.6576 52.2457 68.4525C53.1224 47.4109 83.2938 47.417 84.1673 68.4526C84.1625 72.6577 82.4794 76.6892 79.4872 79.6626C76.495 82.636 72.4381 84.3086 68.2065 84.3134Z" fill="#042F7C"/>
<path d="M74.717 62.8905L69.6598 65.906V56.9173C69.6524 56.5398 69.4962 56.1802 69.2249 55.9158C68.9536 55.6514 68.5888 55.5033 68.2088 55.5033C67.8288 55.5033 67.4639 55.6515 67.1926 55.9159C66.9213 56.1803 66.7652 56.5399 66.7578 56.9174V68.4525C66.7608 68.7065 66.8308 68.9553 66.9609 69.174C67.0909 69.3927 67.2764 69.5736 67.4989 69.6988C67.7213 69.8239 67.973 69.8888 68.2286 69.8871C68.4842 69.8853 68.7349 69.817 68.9556 69.6888L76.2105 65.3631C76.5321 65.1624 76.7618 64.8443 76.8501 64.4772C76.9385 64.1101 76.8784 63.7232 76.683 63.3995C76.4875 63.0759 76.1721 62.8413 75.8045 62.7462C75.437 62.651 75.0465 62.7028 74.717 62.8905Z" fill="#042F7C"/>
<path d="M68.207 79.9877C67.8259 79.9934 67.4623 80.1478 67.1948 80.4176C66.9273 80.6874 66.7773 81.051 66.7773 81.4298C66.7773 81.8086 66.9273 82.1722 67.1948 82.4421C67.4623 82.7119 67.8259 82.8663 68.207 82.8719C68.5881 82.8663 68.9516 82.7119 69.2191 82.4421C69.4866 82.1722 69.6366 81.8086 69.6366 81.4298C69.6366 81.051 69.4866 80.6874 69.2191 80.4176C68.9516 80.1478 68.5881 79.9934 68.207 79.9877Z" fill="#042F7C"/>
<path d="M81.2675 69.8947C81.6486 69.8891 82.0122 69.7347 82.2797 69.4649C82.5472 69.195 82.6971 68.8314 82.6971 68.4526C82.6971 68.0738 82.5472 67.7102 82.2797 67.4404C82.0122 67.1706 81.6486 67.0161 81.2675 67.0105C80.8864 67.0161 80.5228 67.1706 80.2553 67.4404C79.9878 67.7102 79.8379 68.0738 79.8379 68.4526C79.8379 68.8314 79.9878 69.195 80.2553 69.4649C80.5228 69.7347 80.8864 69.8891 81.2675 69.8947Z" fill="#042F7C"/>
<path d="M55.1484 67.0105C54.7673 67.0161 54.4037 67.1706 54.1362 67.4404C53.8687 67.7102 53.7188 68.0738 53.7188 68.4526C53.7188 68.8314 53.8687 69.195 54.1362 69.4649C54.4037 69.7347 54.7673 69.8891 55.1484 69.8947C55.5295 69.8891 55.893 69.7347 56.1605 69.4649C56.428 69.195 56.578 68.8314 56.578 68.4526C56.578 68.0738 56.428 67.7102 56.1605 67.4404C55.893 67.1706 55.5295 67.0161 55.1484 67.0105Z" fill="#042F7C"/>
</svg>
